<svg width="58" height="58" viewBox="0 0 58 58" fill="none" xmlns="http://www.w3.org/2000/svg">
<g opacity="0.8">
<rect width="58" height="58" rx="29" fill="#1D3557"/>
<path fill-rule="evenodd" clip-rule="evenodd" d="M43.1654 29.0007C43.1654 29.5815 42.6979 30.0632 42.1029 30.0632H40.332V33.1798H42.1029C42.6979 33.1798 43.1654 33.6473 43.1654 34.2423C43.1654 34.8231 42.6979 35.3048 42.1029 35.3048H40.0062C39.3262 37.5573 37.5554 39.3282 35.3029 40.0082V42.1048C35.3029 42.6857 34.8212 43.1673 34.2404 43.1673C33.6595 43.1673 33.1779 42.6857 33.1779 42.1048V40.334H30.0754V42.1048C30.0754 42.6857 29.5937 43.1673 29.0129 43.1673C28.4179 43.1673 27.9504 42.6857 27.9504 42.1048V40.334H24.8337V42.1048C24.8337 42.6857 24.352 43.1673 23.7712 43.1673C23.1762 43.1673 22.7087 42.6857 22.7087 42.1048V40.0082C20.442 39.3282 18.657 37.5573 17.9912 35.3048H15.8945C15.3137 35.3048 14.832 34.8231 14.832 34.2423C14.832 33.6473 15.3137 33.1798 15.8945 33.1798H17.6654V30.0632H15.8945C15.3137 30.0632 14.832 29.5815 14.832 29.0007C14.832 28.4057 15.3137 27.9382 15.8945 27.9382H17.6654V24.8215H15.8945C15.3137 24.8215 14.832 24.354 14.832 23.759C14.832 23.1782 15.3137 22.6965 15.8945 22.6965H17.9912C18.6712 20.444 20.442 18.6732 22.7087 17.9932V15.8965C22.7087 15.3157 23.1762 14.834 23.7712 14.834C24.352 14.834 24.8337 15.3157 24.8337 15.8965V17.6673H27.9362V15.8965C27.9362 15.3157 28.4179 14.834 28.9987 14.834C29.5795 14.834 30.0612 15.3157 30.0612 15.8965V17.6673H33.1779V15.8965C33.1779 15.3157 33.6595 14.834 34.2404 14.834C34.8212 14.834 35.3029 15.3157 35.3029 15.8965V17.9932C37.5554 18.6732 39.3262 20.444 40.0062 22.6965H42.1029C42.6979 22.6965 43.1654 23.1782 43.1654 23.759C43.1654 24.354 42.6979 24.8215 42.1029 24.8215H40.332V27.9382H42.1029C42.6979 27.9382 43.1654 28.4057 43.1654 29.0007ZM32.2004 36.4523C34.5379 36.4523 36.4504 34.5398 36.4504 32.2023V25.799C36.4504 23.4615 34.5379 21.549 32.2004 21.549H25.797C23.4595 21.549 21.547 23.4615 21.547 25.799V32.2023C21.547 34.5398 23.4595 36.4523 25.797 36.4523H32.2004ZM26.1799 22.9798H31.804C33.589 22.9798 35.0199 24.4107 35.0199 26.1957V31.8198C35.0199 33.6048 33.5749 35.0357 31.804 35.0357H26.1799C24.3949 35.0357 22.964 33.5907 22.964 31.8198V26.1957C22.964 24.4107 24.409 22.9798 26.1799 22.9798ZM29.8632 32.5848L31.124 30.389C31.4499 29.8365 31.4782 29.2415 31.1949 28.7598C30.9115 28.2782 30.3874 27.9948 29.7499 27.9948H28.9565L29.8632 26.4223C30.1465 25.9407 29.9765 25.3315 29.4949 25.0623C29.0274 24.7932 28.4182 24.949 28.1349 25.4307L26.874 27.6265C26.5482 28.179 26.5199 28.774 26.8032 29.2557C27.0865 29.7373 27.6107 30.0207 28.2482 30.0207H29.0415L28.1349 31.5932C27.8515 32.0748 28.0215 32.684 28.5032 32.9532C28.6449 33.0382 28.829 33.0807 28.999 33.0807C29.339 33.0807 29.679 32.9107 29.8632 32.5848Z" fill="white"/>
</g>
</svg>
