<svg width="58" height="58" viewBox="0 0 58 58" fill="none" xmlns="http://www.w3.org/2000/svg">
<g opacity="0.8">
<rect width="58" height="58" rx="29" fill="#1D3557"/>
<path fill-rule="evenodd" clip-rule="evenodd" d="M37.2806 14.834C37.4798 14.8334 37.6755 14.8862 37.8473 14.987C38.1075 15.137 38.2976 15.3842 38.3757 15.6743C38.4538 15.9644 38.4135 16.2736 38.2638 16.534L36.1586 20.1777C37.0365 21.5411 37.5018 23.1291 37.4988 24.7507H20.4988C20.4957 23.1291 20.9611 21.5411 21.8389 20.1777L19.7338 16.534C19.584 16.2736 19.5437 15.9644 19.6218 15.6743C19.6999 15.3842 19.89 15.137 20.1503 14.987C20.3221 14.8862 20.5178 14.8334 20.7169 14.834C20.9157 14.8342 21.1109 14.8867 21.2829 14.9861C21.455 15.0856 21.5979 15.2285 21.6973 15.4007L23.4086 18.3558C24.9579 17.0008 26.9462 16.254 29.0044 16.254C31.0627 16.254 33.051 17.0008 34.6003 18.3558L36.3003 15.4007C36.3996 15.2285 36.5425 15.0856 36.7146 14.9861C36.8867 14.8867 37.0819 14.8342 37.2806 14.834ZM25.2682 22.3407C25.408 22.4341 25.5723 22.484 25.7404 22.484C25.9659 22.484 26.1821 22.3944 26.3415 22.235C26.5009 22.0756 26.5904 21.8594 26.5904 21.634C26.5904 21.4659 26.5406 21.3015 26.4472 21.1618C26.3538 21.022 26.221 20.913 26.0657 20.8487C25.9104 20.7844 25.7395 20.7675 25.5746 20.8003C25.4097 20.8331 25.2583 20.9141 25.1394 21.0329C25.0205 21.1518 24.9396 21.3033 24.9068 21.4682C24.874 21.633 24.8908 21.804 24.9551 21.9593C25.0195 22.1146 25.1284 22.2473 25.2682 22.3407ZM31.7849 22.3407C31.9246 22.4341 32.089 22.484 32.2571 22.484C32.4825 22.484 32.6987 22.3944 32.8581 22.235C33.0175 22.0756 33.1071 21.8594 33.1071 21.634C33.1071 21.4659 33.0572 21.3015 32.9638 21.1618C32.8704 21.022 32.7377 20.913 32.5824 20.8487C32.4271 20.7844 32.2562 20.7675 32.0913 20.8003C31.9264 20.8331 31.7749 20.9141 31.6561 21.0329C31.5372 21.1518 31.4562 21.3033 31.4234 21.4682C31.3906 21.633 31.4075 21.804 31.4718 21.9593C31.5361 22.1146 31.6451 22.2473 31.7849 22.3407ZM22.482 38.9173H20.4987V26.4507H37.4987V38.9173H35.5154V40.9007C35.5154 41.5018 35.2766 42.0783 34.8515 42.5034C34.4264 42.9285 33.8499 43.1673 33.2487 43.1673C32.6475 43.1673 32.071 42.9285 31.6459 42.5034C31.2208 42.0783 30.982 41.5018 30.982 40.9007V38.9173H27.0154V40.9007C27.0154 41.5018 26.7766 42.0783 26.3515 42.5034C25.9264 42.9285 25.3499 43.1673 24.7487 43.1673C24.1475 43.1673 23.571 42.9285 23.1459 42.5034C22.7208 42.0783 22.482 41.5018 22.482 40.9007V38.9173ZM41.4654 26.4507C41.0145 26.4507 40.5821 26.6298 40.2633 26.9486C39.9445 27.2674 39.7654 27.6998 39.7654 28.1507V33.8173C39.7654 34.2682 39.9445 34.7006 40.2633 35.0194C40.5821 35.3382 41.0145 35.5173 41.4654 35.5173C41.9162 35.5173 42.3486 35.3382 42.6674 35.0194C42.9863 34.7006 43.1654 34.2682 43.1654 33.8173V28.1507C43.1654 27.6998 42.9863 27.2674 42.6674 26.9486C42.3486 26.6298 41.9162 26.4507 41.4654 26.4507ZM15.3299 26.9486C15.6488 26.6298 16.0812 26.4507 16.532 26.4507C16.9829 26.4507 17.4153 26.6298 17.7341 26.9486C18.0529 27.2674 18.232 27.6998 18.232 28.1507V33.8173C18.232 34.2682 18.0529 34.7006 17.7341 35.0194C17.4153 35.3382 16.9829 35.5173 16.532 35.5173C16.0812 35.5173 15.6488 35.3382 15.3299 35.0194C15.0111 34.7006 14.832 34.2682 14.832 33.8173V28.1507C14.832 27.6998 15.0111 27.2674 15.3299 26.9486Z" fill="white"/>
</g>
</svg>
