<svg width="30" height="30" viewBox="0 0 30 30" fill="none" xmlns="http://www.w3.org/2000/svg">
<path d="M13.0508 17.8734L13.8633 18.6859C14.1008 18.9234 14.4883 18.9234 14.7258 18.6984L16.9508 16.6484" stroke="#617289" stroke-width="1.875" stroke-linecap="round" stroke-linejoin="round"/>
<path d="M10.001 27.5H20.001C25.026 27.5 25.926 25.4875 26.1885 23.0375L27.126 13.0375C27.4635 9.9875 26.5885 7.5 21.251 7.5H8.751C3.4135 7.5 2.5385 9.9875 2.876 13.0375L3.8135 23.0375C4.076 25.4875 4.976 27.5 10.001 27.5Z" stroke="#617289" stroke-width="1.875" stroke-miterlimit="10" stroke-linecap="round" stroke-linejoin="round"/>
<path d="M10 7.5V6.5C10 4.2875 10 2.5 14 2.5H16C20 2.5 20 4.2875 20 6.5V7.5" stroke="#617289" stroke-width="1.875" stroke-miterlimit="10" stroke-linecap="round" stroke-linejoin="round"/>
<path d="M15 22.75C17.7614 22.75 20 20.5114 20 17.75C20 14.9886 17.7614 12.75 15 12.75C12.2386 12.75 10 14.9886 10 17.75C10 20.5114 12.2386 22.75 15 22.75Z" stroke="#617289" stroke-width="1.875" stroke-miterlimit="10" stroke-linecap="round" stroke-linejoin="round"/>
<path d="M27.0578 13.75C24.8953 15.325 22.4953 16.425 20.0078 17.05" stroke="#617289" stroke-width="1.875" stroke-miterlimit="10" stroke-linecap="round" stroke-linejoin="round"/>
<path d="M3.26953 14.0859C5.35703 15.5109 7.63203 16.5234 9.99453 17.0984" stroke="#617289" stroke-width="1.875" stroke-miterlimit="10" stroke-linecap="round" stroke-linejoin="round"/>
</svg>
