<svg width="58" height="58" viewBox="0 0 58 58" fill="none" xmlns="http://www.w3.org/2000/svg">
<g opacity="0.8">
<rect width="58" height="58" rx="29" fill="#1D3557"/>
<path fill-rule="evenodd" clip-rule="evenodd" d="M13.7695 24.7507C13.7695 25.3315 14.2512 25.8132 14.832 25.8132C15.4129 25.8132 15.8945 25.3315 15.8945 24.7507C15.8945 20.5573 18.8129 17.044 22.737 16.1232L22.3545 16.7607C22.0429 17.2707 22.2129 17.9223 22.7087 18.2198C23.2187 18.5315 23.8704 18.3615 24.1679 17.8657L25.6554 15.3723C25.8537 15.0465 25.8537 14.6357 25.6695 14.3098C25.4854 13.984 25.1312 13.7715 24.7487 13.7715C18.6995 13.7715 13.7695 18.7015 13.7695 24.7507ZM32.3281 43.6915C32.5123 44.0173 32.8665 44.2298 33.249 44.2298C39.2981 44.2298 44.2281 39.2998 44.2423 33.2507C44.2423 32.6698 43.7606 32.1882 43.1798 32.1882C42.599 32.1882 42.1173 32.6698 42.1173 33.2507C42.1173 37.444 39.1848 40.9573 35.2748 41.8782L35.6573 41.2407C35.9548 40.7307 35.799 40.079 35.289 39.7815C34.779 39.484 34.1273 39.6398 33.8298 40.1498L32.3423 42.629C32.144 42.9548 32.144 43.3657 32.3281 43.6915ZM27.1145 31.6215L22.6661 29.2273C22.1986 28.9723 21.632 28.9723 21.1645 29.2273L16.7161 31.6215C16.3903 31.7915 16.192 32.1456 16.192 32.5281C16.192 32.9106 16.3903 33.2648 16.7161 33.4348L21.1645 35.829C21.4053 35.9565 21.6603 36.0131 21.9153 36.0131C22.1703 36.0131 22.4253 35.9565 22.6661 35.829L27.1145 33.4348C27.4403 33.2648 27.6386 32.9106 27.6386 32.5281C27.6386 32.1456 27.4261 31.8056 27.1145 31.6215ZM16.2912 34.5965L20.4279 36.6648C21.037 36.9623 21.4195 37.5715 21.4195 38.2373V42.1473C21.4195 42.5015 21.2354 42.8273 20.9379 43.0115C20.7679 43.1107 20.5837 43.1673 20.3995 43.1673C20.2437 43.1673 20.0879 43.1248 19.9462 43.0682L15.8095 40.9998C15.2004 40.7023 14.832 40.0932 14.832 39.4132V35.5032C14.832 35.149 15.0162 34.8232 15.2995 34.639C15.6112 34.4548 15.9795 34.4407 16.2912 34.5965ZM28.5172 34.639C28.2197 34.4548 27.8513 34.4407 27.5255 34.5965L23.3888 36.6648C22.7797 36.9623 22.4113 37.5715 22.4113 38.2515V42.1615C22.4113 42.5157 22.5955 42.8415 22.893 43.0257C23.063 43.1107 23.2472 43.1673 23.4313 43.1673C23.5872 43.1673 23.743 43.1248 23.8847 43.054L28.0213 40.9857C28.6305 40.6882 28.9988 40.079 28.9988 39.399V35.489C28.9988 35.149 28.8147 34.8232 28.5172 34.639ZM36.8328 15.0323L41.2811 17.4265C41.5928 17.5965 41.8053 17.9365 41.8053 18.3332C41.8053 18.7157 41.607 19.0698 41.2811 19.2398L36.8328 21.634C36.592 21.7615 36.337 21.8182 36.082 21.8182C35.827 21.8182 35.572 21.7615 35.3311 21.634L30.8828 19.2398C30.557 19.0698 30.3586 18.7157 30.3586 18.3332C30.3586 17.9507 30.557 17.5965 30.8828 17.4265L35.3311 15.0323C35.7986 14.7773 36.3653 14.7773 36.8328 15.0323ZM34.5945 22.4556L30.4579 20.3873C30.1462 20.2315 29.7779 20.2456 29.4662 20.4298C29.1829 20.614 28.9987 20.9398 28.9987 21.294V25.204C28.9987 25.884 29.367 26.4931 29.9762 26.7906L34.1129 28.859C34.2545 28.9298 34.4104 28.9723 34.5662 28.9723C34.7504 28.9723 34.9345 28.9156 35.1045 28.8165C35.402 28.6323 35.5862 28.3065 35.5862 27.9523V24.0423C35.5862 23.3623 35.2037 22.7531 34.5945 22.4556ZM41.6922 20.3873C42.018 20.2315 42.3863 20.2456 42.6838 20.4298C42.9813 20.614 43.1655 20.9398 43.1655 21.294V25.204C43.1655 25.8698 42.7972 26.479 42.188 26.7906L38.0513 28.859C37.9097 28.9298 37.7538 28.9723 37.598 28.9723C37.4138 28.9723 37.2297 28.9156 37.0597 28.8165C36.7622 28.6323 36.578 28.3065 36.578 27.9523V24.0423C36.578 23.3623 36.9463 22.7531 37.5555 22.4556L41.6922 20.3873Z" fill="white"/>
</g>
</svg>
