<svg width="58" height="58" viewBox="0 0 58 58" fill="none" xmlns="http://www.w3.org/2000/svg">
<g opacity="0.8">
<rect width="58" height="58" rx="29" fill="#1D3557"/>
<path fill-rule="evenodd" clip-rule="evenodd" d="M38.9587 37.3308C39.5537 37.0191 40.1062 36.6366 40.6162 36.1833C45.2629 32.1175 42.7837 23.9433 36.6496 23.1641C34.4537 9.87581 15.2721 14.9333 19.8196 27.5841H19.7487C13.487 28.0233 13.5154 36.6366 19.1112 37.9966C19.6071 38.1241 19.9896 37.6283 19.8904 37.1325C19.7629 36.5233 19.692 35.9 19.692 35.2483C19.692 30.1766 23.8287 26.04 28.9004 26.04C33.9721 26.04 38.1087 30.1766 38.1087 35.2483C38.1087 35.6875 38.0804 36.1125 38.0237 36.5233C37.9387 37.09 38.4487 37.5858 38.9587 37.3308ZM21.9165 35.4183C21.9165 31.5083 25.0898 28.335 28.9998 28.335C32.9098 28.335 36.0831 31.5083 36.0831 35.4183C36.0831 36.4666 35.8565 37.4583 35.4315 38.3366C35.3181 38.5916 35.1906 38.8325 35.049 39.0591C33.8306 41.1133 31.5781 42.5016 28.9998 42.5016C26.4215 42.5016 24.169 41.1133 22.9506 39.0591C22.809 38.8325 22.6815 38.5916 22.5681 38.3366C22.1431 37.4583 21.9165 36.4666 21.9165 35.4183ZM28.9148 37.6L31.9323 34.8091C32.3573 34.3983 32.3856 33.7325 31.989 33.3075C31.5923 32.8825 30.9265 32.8541 30.4873 33.2508L28.2206 35.3475L27.5406 34.6675C27.1298 34.2566 26.4498 34.2566 26.039 34.6675C25.6281 35.0783 25.6281 35.7583 26.039 36.1691L27.4415 37.5716C27.654 37.7841 27.9231 37.8833 28.1923 37.8833C28.4473 37.8833 28.7165 37.7841 28.9148 37.6Z" fill="white"/>
</g>
</svg>
