<svg width="37" height="36" viewBox="0 0 37 36" fill="none" xmlns="http://www.w3.org/2000/svg">
<path d="M27.5 12H29C30.5913 12 32.1174 12.6321 33.2426 13.7574C34.3679 14.8826 35 16.4087 35 18C35 19.5913 34.3679 21.1174 33.2426 22.2426C32.1174 23.3679 30.5913 24 29 24H27.5" stroke="#1D3557" stroke-width="2" stroke-linecap="round" stroke-linejoin="round"/>
<path d="M3.5 12H27.5V25.5C27.5 27.0913 26.8679 28.6174 25.7426 29.7426C24.6174 30.8679 23.0913 31.5 21.5 31.5H9.5C7.9087 31.5 6.38258 30.8679 5.25736 29.7426C4.13214 28.6174 3.5 27.0913 3.5 25.5V12Z" stroke="#1D3557" stroke-width="2" stroke-linecap="round" stroke-linejoin="round"/>
<path d="M9.5 1.5V6" stroke="#1D3557" stroke-width="2" stroke-linecap="round" stroke-linejoin="round"/>
<path d="M15.5 1.5V6" stroke="#1D3557" stroke-width="2" stroke-linecap="round" stroke-linejoin="round"/>
<path d="M21.5 1.5V6" stroke="#1D3557" stroke-width="2" stroke-linecap="round" stroke-linejoin="round"/>
</svg>
