<svg width="58" height="58" viewBox="0 0 58 58" fill="none" xmlns="http://www.w3.org/2000/svg">
<g opacity="0.8">
<rect width="58" height="58" rx="29" fill="#1D3557"/>
<path fill-rule="evenodd" clip-rule="evenodd" d="M37.5713 15.1318C37.6988 14.5509 37.3304 13.9984 36.7496 13.8709C36.1829 13.7434 35.6163 14.1118 35.4888 14.6926L34.8513 17.6251H37.0304L36.2401 21.2799C36.1268 21.7758 35.6876 22.1158 35.206 22.1158C35.1351 22.1158 35.0501 22.1158 34.9793 22.0874C34.4126 21.9599 34.0443 21.3933 34.1576 20.8266L34.8518 17.5966H27.6268L28.2218 15.1742C28.3634 14.6076 28.0093 14.0267 27.4426 13.8851C26.8759 13.7576 26.2951 14.0976 26.1534 14.6642L25.4451 17.5967H27.6268L26.7343 21.2799C26.621 21.7616 26.1818 22.0874 25.7001 22.0874C25.6151 22.0874 25.5301 22.0733 25.4451 22.0591C24.8785 21.9174 24.5243 21.3508 24.666 20.7699L25.431 17.5824H22.5551C21.1668 17.5824 19.9343 18.4891 19.5235 19.8208L13.5593 39.0166C12.936 41.0708 14.4518 43.1674 16.591 43.1674H29.5622C29.5544 43.1675 29.5466 43.1675 29.5388 43.1675H41.4388C43.2663 43.1675 44.7113 41.6234 44.5696 39.7959L43.1671 20.5009L43.1534 20.5283C43.125 20.1886 43.0542 19.8489 42.9126 19.5516C42.4451 18.4183 41.3401 17.6108 39.9801 17.6108H37.036L37.5713 15.1318ZM41.6801 27.1513L42.4446 39.9659C42.4729 40.3484 42.2888 40.6034 42.1896 40.7167C42.0763 40.8442 41.8354 41.0425 41.4388 41.0425H38.2081C38.2414 40.9457 38.2702 40.8464 38.2943 40.7449L41.6801 27.1513ZM21.4926 35.7299H32.826C33.4068 35.7299 33.8885 35.2483 33.8885 34.6674C33.8885 34.0866 33.4068 33.6049 32.826 33.6049H21.4926C20.9118 33.6049 20.4301 34.0866 20.4301 34.6674C20.4301 35.2483 20.9118 35.7299 21.4926 35.7299ZM22.9093 30.0633H34.2426C34.8235 30.0633 35.3051 29.5816 35.3051 29.0008C35.3051 28.4199 34.8235 27.9383 34.2426 27.9383H22.9093C22.3285 27.9383 21.8468 28.4199 21.8468 29.0008C21.8468 29.5816 22.3285 30.0633 22.9093 30.0633Z" fill="white"/>
</g>
</svg>
