<svg width="58" height="58" viewBox="0 0 58 58" fill="none" xmlns="http://www.w3.org/2000/svg">
<g opacity="0.8">
<rect width="58" height="58" rx="29" fill="#1D3557"/>
<g clip-path="url(#clip0_1463_65758)">
<g filter="url(#filter0_d_1463_65758)">
<path d="M28.3183 13.416H29.5243C32.6697 13.5463 35.7791 14.6067 38.3004 16.5025C40.6888 18.2773 42.5549 20.7482 43.5907 23.5408C44.1851 25.096 44.4829 26.75 44.5846 28.4086V29.434C44.4838 32.1837 43.6925 34.9174 42.2155 37.2456C40.5595 39.8984 38.0952 42.0497 35.2208 43.291C33.339 44.1069 31.3155 44.5458 29.2648 44.5827H28.7427C25.8854 44.5362 23.0426 43.6915 20.6352 42.1497C17.9091 40.4178 15.7377 37.8193 14.5412 34.8166C13.8784 33.1849 13.5253 31.4391 13.418 29.684V28.4771C13.5407 24.9732 14.8675 21.5111 17.1701 18.8602C19.0591 16.6569 21.5749 14.9938 24.3475 14.1311C25.6343 13.7252 26.9745 13.5158 28.3183 13.416ZM19.5517 22.5525C19.5444 25.5116 19.549 28.4705 19.549 31.4286C19.8972 31.4313 20.2454 31.4313 20.5943 31.4313C20.5761 28.891 20.6189 26.3514 20.5685 23.8118C20.6854 24.0326 20.7921 24.2598 20.9252 24.4709C22.4356 26.786 23.9136 29.1211 25.4242 31.4342C25.8474 31.4286 26.2706 31.4286 26.6938 31.4352C26.693 28.4744 26.692 25.5136 26.6947 22.5527C26.3498 22.5494 26.0048 22.5484 25.6599 22.5498C25.6782 25.0626 25.6268 27.5754 25.6903 30.0856C24.1059 27.565 22.5004 25.0587 20.8948 22.5508C20.4471 22.548 19.9994 22.5486 19.5517 22.5525ZM29.0098 22.5498C28.9784 25.5106 29.0088 28.4715 28.9984 31.4313C30.5735 31.4277 32.1486 31.4372 33.7245 31.4265C33.7189 31.1057 33.7208 30.7848 33.7304 30.4642C32.51 30.4603 31.2889 30.4659 30.0675 30.4593C30.0495 29.4342 30.0666 28.4077 30.0578 27.3823C31.1279 27.3633 32.1981 27.3853 33.267 27.3709C33.2643 27.06 33.2643 26.749 33.2624 26.4378C32.1942 26.4722 31.1262 26.4247 30.0571 26.4408C30.06 25.4612 30.0619 24.4807 30.0619 23.4999C31.2061 23.4999 32.3503 23.495 33.4934 23.5028C33.4915 23.186 33.4934 22.8683 33.4973 22.5517C32.0011 22.5478 30.5049 22.5498 29.0098 22.5498ZM34.5132 22.5629C34.5141 22.8712 34.5141 23.1785 34.5151 23.4858C35.3644 23.476 36.2127 23.5123 37.062 23.4943C37.0564 26.1393 37.063 28.7824 37.0593 31.4257C37.4148 31.4362 37.7728 31.4342 38.1283 31.4038C38.099 29.9448 38.157 28.4849 38.0903 27.0266C38.1066 26.3694 38.0732 25.7132 38.1188 25.0568C38.1446 24.5357 38.0513 24.0154 38.1102 23.4943C38.9664 23.5057 39.8232 23.4979 40.6791 23.4979C40.6752 23.1868 40.6813 22.8756 40.6973 22.5649C38.6352 22.5393 36.5733 22.542 34.5132 22.5629ZM16.7173 30.2397C16.2359 30.4613 16.2045 31.2192 16.681 31.4637C17.0998 31.751 17.7292 31.3734 17.7102 30.8769C17.7426 30.3889 17.1526 29.9789 16.7173 30.2397ZM23.8345 33.9624C22.793 34.8071 22.8055 36.6883 23.9562 37.4321C24.6058 37.8448 25.442 37.7594 26.1286 37.4845C26.1315 37.3333 26.1352 37.1828 26.1408 37.0316C25.4904 37.3713 24.58 37.4406 24.0285 36.8831C23.3066 36.0949 23.4692 34.6261 24.4213 34.0888C24.9596 33.8053 25.6161 33.8881 26.1466 34.147C26.1449 33.9863 26.1457 33.8256 26.1466 33.6649C25.3925 33.3973 24.4612 33.4116 23.8345 33.9624ZM28.0242 34.6223C27.564 34.6758 27.1091 34.9193 26.8961 35.3444C26.591 35.9522 26.6261 36.773 27.1065 37.2826C27.602 37.8419 28.554 37.8475 29.0982 37.3549C29.6887 36.793 29.7554 35.78 29.2825 35.1236C29.003 34.727 28.4856 34.5918 28.0242 34.6223ZM32.3795 35.2853C31.9753 35.9873 32.0551 37.0506 32.7686 37.5281C33.3001 37.8251 33.9697 37.7306 34.491 37.4531C34.49 37.3028 34.492 37.1524 34.4986 37.0031C34.0878 37.2636 33.5399 37.455 33.0834 37.1923C32.7647 37.0165 32.6685 36.6427 32.6174 36.3096C33.3174 36.3001 34.0165 36.2897 34.7175 36.2916C34.6992 35.8465 34.6887 35.3435 34.3644 34.9992C33.829 34.4075 32.7467 34.5957 32.3795 35.2853ZM30.3308 34.7165V37.6403C30.4895 37.6403 30.6502 37.6403 30.8112 37.6413C30.8168 37.1068 30.8014 36.5714 30.8168 36.0357C30.8207 35.7265 30.9451 35.4129 31.1781 35.2044C31.3731 35.0571 31.6366 35.1387 31.8601 35.1445C31.8572 34.9897 31.8552 34.8353 31.8545 34.6814C31.4179 34.5845 31.0422 34.8402 30.8216 35.1969C30.8168 35.0428 30.8119 34.8886 30.8092 34.7357C30.6495 34.7299 30.4895 34.7233 30.3308 34.7165Z" fill="white"/>
</g>
<g filter="url(#filter1_d_1463_65758)">
<path d="M27.7243 35.1406C28.1265 34.9445 28.7039 35.0407 28.9284 35.4571C29.184 35.9166 29.1784 36.5243 28.895 36.9694C28.5249 37.526 27.5492 37.4043 27.3067 36.7887C27.0613 36.2389 27.1565 35.4537 27.7243 35.1406ZM32.6628 35.9175C32.674 35.5343 32.9413 35.1537 33.3265 35.0702C33.5642 35.0303 33.8371 35.0719 34.0017 35.2633C34.1653 35.4371 34.1997 35.6806 34.2403 35.9061C33.7144 35.909 33.1887 35.8985 32.6628 35.9175Z" fill="white"/>
</g>
</g>
</g>
<defs>
<filter id="filter0_d_1463_65758" x="10.418" y="13.416" width="37.168" height="37.166" filterUnits="userSpaceOnUse" color-interpolation-filters="sRGB">
<feFlood flood-opacity="0" result="BackgroundImageFix"/>
<feColorMatrix in="SourceAlpha" type="matrix" values="0 0 0 0 0 0 0 0 0 0 0 0 0 0 0 0 0 0 127 0" result="hardAlpha"/>
<feOffset dy="3"/>
<feGaussianBlur stdDeviation="1.5"/>
<feComposite in2="hardAlpha" operator="out"/>
<feColorMatrix type="matrix" values="0 0 0 0 0 0 0 0 0 0 0 0 0 0 0 0 0 0 0.2 0"/>
<feBlend mode="normal" in2="BackgroundImageFix" result="effect1_dropShadow_1463_65758"/>
<feBlend mode="normal" in="SourceGraphic" in2="effect1_dropShadow_1463_65758" result="shape"/>
</filter>
<filter id="filter1_d_1463_65758" x="24.1797" y="35.043" width="13.0625" height="8.2832" filterUnits="userSpaceOnUse" color-interpolation-filters="sRGB">
<feFlood flood-opacity="0" result="BackgroundImageFix"/>
<feColorMatrix in="SourceAlpha" type="matrix" values="0 0 0 0 0 0 0 0 0 0 0 0 0 0 0 0 0 0 127 0" result="hardAlpha"/>
<feOffset dy="3"/>
<feGaussianBlur stdDeviation="1.5"/>
<feComposite in2="hardAlpha" operator="out"/>
<feColorMatrix type="matrix" values="0 0 0 0 0 0 0 0 0 0 0 0 0 0 0 0 0 0 0.2 0"/>
<feBlend mode="normal" in2="BackgroundImageFix" result="effect1_dropShadow_1463_65758"/>
<feBlend mode="normal" in="SourceGraphic" in2="effect1_dropShadow_1463_65758" result="shape"/>
</filter>
<clipPath id="clip0_1463_65758">
<rect x="12" y="12" width="34" height="34" rx="17" fill="white"/>
</clipPath>
</defs>
</svg>
