<svg width="15" height="29" viewBox="0 0 15 29" fill="none" xmlns="http://www.w3.org/2000/svg">
<path d="M0.468299 15.2663H3.65095V27.9019C3.65095 28.1514 3.86057 28.3535 4.11925 28.3535H9.51556C9.77425 28.3535 9.98386 28.1514 9.98386 27.9019V15.3258H13.6426C13.8805 15.3258 14.0806 15.1537 14.1078 14.9258L14.6635 10.274C14.6788 10.146 14.6367 10.0179 14.5479 9.92184C14.459 9.82574 14.3318 9.77073 14.1984 9.77073H9.98405V6.85475C9.98405 5.97573 10.4748 5.52999 11.4429 5.52999C11.5809 5.52999 14.1984 5.52999 14.1984 5.52999C14.4571 5.52999 14.6667 5.32776 14.6667 5.07838V0.80847C14.6667 0.559 14.4571 0.356858 14.1984 0.356858H10.4009C10.3741 0.355593 10.3147 0.353516 10.227 0.353516C9.5681 0.353516 7.27784 0.478251 5.46871 2.08328C3.4642 3.86192 3.74284 5.99154 3.80943 6.36078V9.77064H0.468299C0.209611 9.77064 0 9.97278 0 10.2223V14.8146C0 15.0641 0.209611 15.2663 0.468299 15.2663Z" fill="#1877F2"/>
</svg>
