<svg width="58" height="58" viewBox="0 0 58 58" fill="none" xmlns="http://www.w3.org/2000/svg">
<g opacity="0.8">
<rect width="58" height="58" rx="29" fill="#1D3557"/>
<g filter="url(#filter0_d_1463_65732)">
<path d="M40.1635 14.834H17.8226C16.9726 14.834 16.321 15.5707 16.4201 16.4065L18.9701 39.3848C19.0268 39.9515 19.4377 40.4331 19.9902 40.589L28.6034 43.054C28.8584 43.1248 29.1277 43.1248 29.3827 43.054L37.9959 40.589C38.5484 40.4331 38.9452 39.9515 39.016 39.3848L41.566 16.4065C41.6651 15.5707 41.0135 14.834 40.1635 14.834ZM35.021 22.6257H24.1694L24.6368 26.8757H34.3127C34.6102 26.8757 34.8935 27.0032 35.106 27.2298C35.3043 27.4565 35.4035 27.754 35.3752 28.0515L34.6668 35.1348C34.6243 35.574 34.3268 35.9281 33.9018 36.0556L28.9435 37.4723C28.8443 37.5006 28.7452 37.5148 28.646 37.5148C28.5468 37.5148 28.4476 37.5006 28.3485 37.4723L23.3901 36.0556C22.9368 35.9281 22.6252 35.5031 22.6252 35.0356V32.2023C22.6252 31.6215 23.1068 31.1398 23.6877 31.1398C24.2685 31.1398 24.7502 31.6215 24.7502 32.2023V34.2282L28.646 35.3473L32.6126 34.214L33.1368 29.0148H23.6877C23.1493 29.0148 22.696 28.604 22.6252 28.0656L21.9168 21.6906C21.8885 21.3931 21.9735 21.0956 22.186 20.869C22.3843 20.6423 22.6818 20.5148 22.9793 20.5148H35.021C35.6018 20.5148 36.0835 20.9965 36.0835 21.5773C36.0835 22.1581 35.6018 22.6257 35.021 22.6257Z" fill="white"/>
</g>
</g>
<defs>
<filter id="filter0_d_1463_65732" x="13.4102" y="14.834" width="31.1641" height="34.2734" filterUnits="userSpaceOnUse" color-interpolation-filters="sRGB">
<feFlood flood-opacity="0" result="BackgroundImageFix"/>
<feColorMatrix in="SourceAlpha" type="matrix" values="0 0 0 0 0 0 0 0 0 0 0 0 0 0 0 0 0 0 127 0" result="hardAlpha"/>
<feOffset dy="3"/>
<feGaussianBlur stdDeviation="1.5"/>
<feComposite in2="hardAlpha" operator="out"/>
<feColorMatrix type="matrix" values="0 0 0 0 0 0 0 0 0 0 0 0 0 0 0 0 0 0 0.2 0"/>
<feBlend mode="normal" in2="BackgroundImageFix" result="effect1_dropShadow_1463_65732"/>
<feBlend mode="normal" in="SourceGraphic" in2="effect1_dropShadow_1463_65732" result="shape"/>
</filter>
</defs>
</svg>
