<svg width="66" height="66" viewBox="0 0 66 66" fill="none" xmlns="http://www.w3.org/2000/svg">
<g opacity="0.8" filter="url(#filter0_d_1470_68057)">
<rect x="4" width="58" height="58" rx="29" fill="#1D3557" shape-rendering="crispEdges"/>
<path fill-rule="evenodd" clip-rule="evenodd" d="M23.8052 37.1748C24.0035 37.359 24.2727 37.4581 24.5277 37.4581C24.811 37.4581 25.0944 37.3448 25.3069 37.1323C25.7035 36.7073 25.6752 36.0273 25.2502 35.6307C22.8985 33.449 21.6094 30.5023 21.6094 27.3007C21.6094 21.0248 26.7235 15.9107 32.9994 15.9107C39.2752 15.9107 44.3894 21.0248 44.3894 27.3007C44.3894 30.474 43.1144 33.4065 40.791 35.5882C40.366 35.9848 40.3519 36.6648 40.7485 37.0898C41.1452 37.5148 41.8252 37.529 42.2502 37.1323C44.9985 34.5398 46.5144 31.0548 46.5144 27.2865C46.5144 19.8348 40.451 13.7715 32.9994 13.7715C25.5477 13.7715 19.4844 19.8348 19.4844 27.2865C19.4844 31.0265 21.0569 34.6248 23.8052 37.1748ZM32.2206 24.269C34.5439 23.7165 36.5698 25.7423 36.0172 28.0656C35.7622 29.1565 34.8697 30.049 33.7647 30.3181C31.4414 30.8706 29.4156 28.8448 29.9681 26.5215C30.2372 25.4306 31.1297 24.5381 32.2206 24.269ZM38.6661 33.6756C38.4111 33.6756 38.142 33.5765 37.9436 33.3923C37.5186 32.9956 37.4903 32.3156 37.9011 31.8906C39.077 30.644 39.7286 29.0006 39.7286 27.3006C39.7286 23.589 36.7111 20.5856 33.0136 20.5856C29.3161 20.5856 26.2986 23.6031 26.2986 27.3006C26.2986 29.0148 26.9503 30.644 28.1261 31.8906C28.5228 32.3156 28.5086 32.9956 28.0836 33.3923C27.6586 33.8032 26.9786 33.7748 26.582 33.3498C25.0378 31.7065 24.1736 29.5531 24.1736 27.3006C24.1736 22.4273 28.1403 18.4606 33.0136 18.4606C37.887 18.4606 41.8536 22.4273 41.8536 27.3006C41.8536 29.5531 41.0036 31.7065 39.4453 33.3498C39.2328 33.5623 38.9495 33.6756 38.6661 33.6756ZM28.5509 38.1381L30.5909 35.6023C31.8234 34.0581 34.1751 34.0581 35.3934 35.6165L37.4334 38.1523C39.0626 40.164 37.6176 43.1673 35.0251 43.1673H30.9593C28.3809 43.1673 26.9359 40.164 28.5509 38.1381Z" fill="white"/>
</g>
<defs>
<filter id="filter0_d_1470_68057" x="0" y="0" width="66" height="66" filterUnits="userSpaceOnUse" color-interpolation-filters="sRGB">
<feFlood flood-opacity="0" result="BackgroundImageFix"/>
<feColorMatrix in="SourceAlpha" type="matrix" values="0 0 0 0 0 0 0 0 0 0 0 0 0 0 0 0 0 0 127 0" result="hardAlpha"/>
<feOffset dy="4"/>
<feGaussianBlur stdDeviation="2"/>
<feComposite in2="hardAlpha" operator="out"/>
<feColorMatrix type="matrix" values="0 0 0 0 0 0 0 0 0 0 0 0 0 0 0 0 0 0 0.25 0"/>
<feBlend mode="normal" in2="BackgroundImageFix" result="effect1_dropShadow_1470_68057"/>
<feBlend mode="normal" in="SourceGraphic" in2="effect1_dropShadow_1470_68057" result="shape"/>
</filter>
</defs>
</svg>
