<svg width="58" height="58" viewBox="0 0 58 58" fill="none" xmlns="http://www.w3.org/2000/svg">
<g opacity="0.8">
<rect width="58" height="58" rx="29" fill="#1D3557"/>
<g clip-path="url(#clip0_1463_75447)">
<g filter="url(#filter0_d_1463_75447)">
<path d="M14.5584 20.5489C11.6288 24.7593 11.9935 30.2378 14.2314 34.712C14.2845 34.8193 14.3403 34.9248 14.3953 35.0302L14.4999 35.2318L14.5653 35.3479L14.6819 35.5567C14.7515 35.6791 14.8226 35.8011 14.8954 35.923L15.0174 36.1238C15.0981 36.2542 15.1807 36.383 15.2652 36.5116L15.3709 36.6747C15.4875 36.8487 15.6068 37.0224 15.73 37.1929L15.7404 37.2062L15.8009 37.288C15.9075 37.4349 16.0172 37.58 16.1282 37.7234L16.2514 37.8801C16.3505 38.0047 16.4512 38.1285 16.5537 38.2517L16.6693 38.3898C16.8071 38.5525 16.9476 38.713 17.0906 38.8712L17.0993 38.8799L17.1155 38.898C17.2561 39.0505 17.3988 39.2009 17.5437 39.3493L17.681 39.4877C17.7934 39.6008 17.9076 39.7121 18.0229 39.8229L18.1629 39.9557C18.3169 40.101 18.4726 40.2434 18.6314 40.3826L18.6389 40.3884L18.7204 40.458C18.8604 40.5791 19.0028 40.6995 19.1462 40.8174L19.3226 40.9579C19.4397 41.0519 19.5582 41.1444 19.6775 41.2352L19.8671 41.3795C19.9989 41.4764 20.1314 41.5718 20.2653 41.665L20.4103 41.7678L20.4502 41.7962C20.5771 41.8836 20.707 41.9678 20.8369 42.052L21.0043 42.1636C21.2035 42.2895 21.4054 42.4141 21.6096 42.5344L21.777 42.6287C21.9271 42.7153 22.0782 42.8003 22.2312 42.8834C22.3141 42.928 22.3991 42.9703 22.4825 43.013C22.5906 43.0696 22.6979 43.127 22.8079 43.182L22.883 43.2184L23.0161 43.2827C23.1864 43.3639 23.358 43.4439 23.5314 43.5209L23.6403 43.5698C23.8392 43.6568 24.0396 43.7401 24.2414 43.8197L24.3878 43.8774C24.5748 43.9494 24.7645 44.0206 24.9549 44.0875L25.0261 44.1122C25.2351 44.1852 25.4461 44.253 25.6586 44.3191L25.8113 44.3648C26.0275 44.4299 26.2413 44.5077 26.4642 44.5489C40.6324 47.1326 44.748 36.0348 44.748 36.0348C41.2914 40.538 35.156 41.7258 29.3428 40.4033C29.1226 40.3536 28.909 40.2848 28.6941 40.2213L28.5324 40.1722C28.323 40.108 28.1147 40.0403 27.9076 39.969L27.8218 39.9379C27.6371 39.8726 27.4535 39.8045 27.2709 39.7336L27.1163 39.6728C26.9166 39.5939 26.7179 39.5116 26.5216 39.4255L26.4028 39.3729C26.2347 39.297 26.0674 39.2191 25.9011 39.1394L25.756 39.0698C25.6256 39.0064 25.4965 38.9389 25.368 38.8725C25.2819 38.8271 25.1942 38.7843 25.109 38.737C24.9525 38.6527 24.7974 38.5658 24.6439 38.4762L24.4869 38.3885C24.283 38.2682 24.0811 38.1444 23.8813 38.0174L23.7179 37.9085C23.5726 37.8154 23.4289 37.7198 23.2868 37.6219L23.1481 37.5244C23.0113 37.4277 22.8754 37.3295 22.7407 37.2299L22.5603 37.0933C22.4365 36.9992 22.3139 36.9034 22.1927 36.8059L22.0288 36.6744C21.8744 36.5479 21.7217 36.4192 21.5709 36.2885L21.5206 36.2462C21.3581 36.1028 21.1976 35.9569 21.0393 35.8088L20.9036 35.6783C20.7865 35.5668 20.6712 35.4544 20.5578 35.3391L20.4223 35.2039C20.2783 35.0566 20.1368 34.907 19.9978 34.755L19.9768 34.7327C19.8303 34.5721 19.6868 34.4088 19.5463 34.2429L19.4336 34.109C19.3286 33.9827 19.2253 33.855 19.1236 33.726L19.0102 33.5847C18.8887 33.4276 18.7694 33.2687 18.6524 33.1082C15.4251 28.7057 14.2654 22.634 16.8449 17.6477M23.6526 17.0012C21.5337 20.05 21.6489 24.1316 23.3017 27.356C23.5783 27.8981 23.8913 28.4207 24.2388 28.9203C24.5562 29.3753 24.9082 29.9167 25.3294 30.2822C25.4835 30.4509 25.642 30.6155 25.8049 30.7757L25.9303 30.8992C26.0885 31.0534 26.2504 31.2038 26.4159 31.3502L26.4355 31.3672L26.4403 31.372C26.6254 31.5332 26.8145 31.6897 27.0074 31.8414L27.1362 31.9418C27.3302 32.0912 27.528 32.2357 27.7294 32.375L27.7466 32.388C27.8359 32.4497 27.9267 32.507 28.0173 32.5665L28.1456 32.6513C28.2901 32.744 28.4365 32.8343 28.5852 32.9209L28.6476 32.957C28.7759 33.0309 28.9058 33.1036 29.0362 33.1743L29.1746 33.2463C29.2647 33.2933 29.3547 33.3414 29.4464 33.3871L29.4875 33.4057C29.6743 33.4976 29.8626 33.5863 30.0549 33.67L30.1803 33.7215C30.3341 33.7868 30.4895 33.8506 30.6451 33.9101L30.8444 33.9831C30.9859 34.0357 31.128 34.0835 31.2712 34.1316L31.4643 34.1935C31.6681 34.2567 31.8694 34.3367 32.0816 34.372C43.0209 36.1844 45.5464 27.7617 45.5464 27.7617C43.27 31.0403 38.8612 32.6048 34.1567 31.3835C33.9487 31.3288 33.7421 31.2691 33.537 31.2044L33.3508 31.1441C33.2054 31.0971 33.061 31.0473 32.9176 30.9948L32.7221 30.9221C32.5655 30.862 32.41 30.7993 32.2556 30.734L32.13 30.6809C31.9376 30.5972 31.7474 30.5087 31.5594 30.4155C31.463 30.3685 31.3682 30.3188 31.2731 30.27L31.1079 30.185C30.986 30.1189 30.8653 30.0507 30.7458 29.9804L30.6592 29.9313C30.5112 29.845 30.365 29.7557 30.2207 29.6635L30.0884 29.5753C29.9931 29.5137 29.8984 29.4511 29.8044 29.3875C29.6039 29.2482 29.4068 29.104 29.2131 28.9551L29.0801 28.8502C27.0209 27.2246 25.3884 25.0023 24.6125 22.4829C23.7992 19.8702 23.9745 16.9372 25.3836 14.5566M31.3012 14.3508C30.0523 16.1889 29.9295 18.4717 30.7963 20.5016C31.7103 22.6566 33.5829 24.3468 35.7688 25.1487C35.8588 25.1819 35.9491 25.2117 36.0402 25.2427L36.16 25.2807C36.2889 25.3211 36.4166 25.3681 36.5497 25.3933C42.59 26.5605 44.2284 22.2938 44.6643 21.6656C43.2294 23.7319 40.8175 24.2278 37.8582 23.5095C37.6244 23.453 37.3676 23.3685 37.1423 23.2885C36.853 23.1857 36.5691 23.0679 36.2921 22.9355C35.7663 22.6824 35.267 22.3777 34.8014 22.026C32.1534 20.0166 30.5083 16.1839 32.2362 13.0625" fill="white"/>
</g>
</g>
</g>
<defs>
<filter id="filter0_d_1463_75447" x="9.45703" y="13.0625" width="39.0898" height="37.877" filterUnits="userSpaceOnUse" color-interpolation-filters="sRGB">
<feFlood flood-opacity="0" result="BackgroundImageFix"/>
<feColorMatrix in="SourceAlpha" type="matrix" values="0 0 0 0 0 0 0 0 0 0 0 0 0 0 0 0 0 0 127 0" result="hardAlpha"/>
<feOffset dy="3"/>
<feGaussianBlur stdDeviation="1.5"/>
<feComposite in2="hardAlpha" operator="out"/>
<feColorMatrix type="matrix" values="0 0 0 0 0 0 0 0 0 0 0 0 0 0 0 0 0 0 0.2 0"/>
<feBlend mode="normal" in2="BackgroundImageFix" result="effect1_dropShadow_1463_75447"/>
<feBlend mode="normal" in="SourceGraphic" in2="effect1_dropShadow_1463_75447" result="shape"/>
</filter>
<clipPath id="clip0_1463_75447">
<rect x="12" y="12" width="34" height="34" rx="17" fill="white"/>
</clipPath>
</defs>
</svg>
