<svg width="58" height="58" viewBox="0 0 58 58" fill="none" xmlns="http://www.w3.org/2000/svg">
<g opacity="0.8">
<rect width="58" height="58" rx="29" fill="#1D3557"/>
<g filter="url(#filter0_d_1463_16282)">
<path d="M40.1635 14.834H17.8226C16.9726 14.834 16.321 15.5707 16.4201 16.4065L18.9701 39.3848C19.0268 39.9515 19.4377 40.4331 19.9902 40.589L28.6034 43.054C28.8584 43.1248 29.1277 43.1248 29.3827 43.054L37.9959 40.589C38.5484 40.4331 38.9452 39.9515 39.016 39.3848L41.566 16.4065C41.6651 15.5707 41.0135 14.834 40.1635 14.834ZM28.1076 34.6532C28.1076 34.9932 27.9518 35.3048 27.6827 35.5031C27.4985 35.6448 27.2718 35.7157 27.0451 35.7157C26.946 35.7157 26.8468 35.7015 26.7476 35.6732L22.3276 34.3981C21.761 34.2281 21.4352 33.6473 21.6052 33.0807C21.761 32.514 22.356 32.2023 22.9227 32.3581L25.9826 33.2365V21.9315C25.9826 21.3506 26.4643 20.869 27.0451 20.869C27.626 20.869 28.1076 21.3506 28.1076 21.9315V34.6532V34.6532ZM36.4377 33.3923C36.4377 33.874 36.1118 34.299 35.6301 34.4265L30.5302 35.7015C30.4452 35.7298 30.3602 35.7298 30.2752 35.7298C29.7935 35.7298 29.3685 35.404 29.241 34.9223C29.0993 34.3556 29.4393 33.7748 30.0201 33.6332L34.3127 32.5565V30.1481L31.0685 30.6156C30.7568 30.6581 30.4593 30.5732 30.2185 30.3607C29.9918 30.1623 29.8501 29.8648 29.8501 29.5531V22.5407C29.8501 22.0165 30.2326 21.5631 30.7568 21.4923L35.2193 20.8548C35.8002 20.7698 36.3385 21.1807 36.4235 21.7615C36.5085 22.3423 36.0976 22.8807 35.5168 22.9657L31.961 23.4757V28.3348L35.2052 27.8673C35.5168 27.8248 35.8143 27.9098 36.0551 28.1223C36.2818 28.3207 36.4235 28.6181 36.4235 28.9298V33.3923H36.4377Z" fill="white"/>
</g>
</g>
<defs>
<filter id="filter0_d_1463_16282" x="13.4102" y="14.834" width="31.1641" height="34.2734" filterUnits="userSpaceOnUse" color-interpolation-filters="sRGB">
<feFlood flood-opacity="0" result="BackgroundImageFix"/>
<feColorMatrix in="SourceAlpha" type="matrix" values="0 0 0 0 0 0 0 0 0 0 0 0 0 0 0 0 0 0 127 0" result="hardAlpha"/>
<feOffset dy="3"/>
<feGaussianBlur stdDeviation="1.5"/>
<feComposite in2="hardAlpha" operator="out"/>
<feColorMatrix type="matrix" values="0 0 0 0 0 0 0 0 0 0 0 0 0 0 0 0 0 0 0.2 0"/>
<feBlend mode="normal" in2="BackgroundImageFix" result="effect1_dropShadow_1463_16282"/>
<feBlend mode="normal" in="SourceGraphic" in2="effect1_dropShadow_1463_16282" result="shape"/>
</filter>
</defs>
</svg>
