<svg width="58" height="58" viewBox="0 0 58 58" fill="none" xmlns="http://www.w3.org/2000/svg">
<g opacity="0.8">
<rect width="58" height="58" rx="29" fill="#1D3557"/>
<g filter="url(#filter0_d_1463_36949)">
<path d="M18.9151 12.6734C18.8612 12.6934 17.3369 13.5292 15.5294 14.5288C13.3391 15.7411 12.2143 16.3792 12.1541 16.4391C12.1064 16.4911 12.0524 16.5809 12.0358 16.6379C11.9902 16.7846 11.9871 38.2913 12.0327 38.4461C12.0493 38.506 12.1033 38.5939 12.152 38.6428C12.2703 38.7626 25.3461 45.9984 25.5049 46.0334C25.5786 46.0503 25.6616 46.0473 25.7435 46.0254C25.922 45.9824 38.9636 38.7626 39.0798 38.6448C39.1275 38.5939 39.1815 38.506 39.1991 38.4461C39.2219 38.3752 39.2302 37.2508 39.2302 34.8831V31.423L42.4094 29.6655C45.4071 28.0068 45.5907 27.9029 45.6675 27.7891L45.7464 27.6663V23.9395C45.7464 19.8823 45.7547 20.1109 45.5876 19.9642C45.543 19.9262 44.0156 19.0684 42.1905 18.0568L38.8754 16.2214H38.507L35.2635 18.0139C33.4778 19.0025 31.9598 19.8473 31.8861 19.8933C31.8125 19.9402 31.7243 20.0271 31.6879 20.09L31.6226 20.1988L31.608 23.7099L31.5946 27.2219L28.9165 28.7068C27.4431 29.5217 26.2167 30.1967 26.1907 30.2027C26.143 30.2157 26.1399 29.8812 26.1399 23.4273V16.6349L26.0693 16.518C25.9812 16.3762 26.3775 16.6029 22.3973 14.401C19.0593 12.5536 19.1392 12.5926 18.9151 12.6734ZM21.9833 15.3627C23.3799 16.1336 24.5223 16.7717 24.5223 16.7797C24.5223 16.7876 23.2979 17.4687 21.8017 18.2965L19.0791 19.8004L16.3616 18.2965C14.8685 17.4687 13.6452 16.7876 13.6452 16.7797C13.6452 16.7717 14.8664 16.0906 16.3595 15.2648L19.0707 13.7639L19.2575 13.8618C19.3623 13.9167 20.5898 14.5917 21.9833 15.3627ZM41.4144 18.8228C42.8847 19.6376 44.1007 20.3107 44.1121 20.3217C44.1433 20.3486 38.7509 23.3314 38.6772 23.3284C38.6035 23.3264 33.2775 20.3706 33.2796 20.3346C33.2827 20.2937 38.6409 17.3269 38.6948 17.3349C38.7197 17.3409 39.9441 18.0109 41.4144 18.8228ZM15.9403 19.2532L18.5322 20.6891L18.5468 27.7991L18.5603 34.9101L18.6235 35.0059C18.6567 35.0568 18.719 35.1258 18.7647 35.1577C18.8072 35.1877 20.2495 35.9785 21.9688 36.9122L25.0919 38.6098V41.6176C25.0919 43.2683 25.0805 44.6223 25.066 44.6223C25.0546 44.6223 22.3547 43.1354 19.0676 41.315L13.0921 38.0077L13.0838 27.84L13.0786 17.6754L13.2114 17.7463C13.2882 17.7852 14.5147 18.4633 15.9403 19.2532ZM25.0919 24.2581V30.8098L24.9871 30.8758C24.845 30.9626 19.6549 33.8336 19.6373 33.8336C19.629 33.8336 19.6228 30.8758 19.6228 27.2599L19.6259 20.6891L22.3371 19.1883C23.8281 18.3624 25.0577 17.6924 25.0722 17.6974C25.0826 17.7033 25.0919 20.6562 25.0919 24.2581ZM35.4357 22.7512L38.1532 24.2551V27.2359C38.1532 30.0639 38.1501 30.2157 38.1055 30.1997C38.0764 30.1887 36.8469 29.5107 35.3714 28.6928L32.6851 27.2079V24.2281C32.6851 22.5875 32.6934 21.2473 32.7017 21.2473C32.7131 21.2473 33.9426 21.9234 35.4357 22.7512ZM44.6984 24.2092C44.6984 25.8409 44.687 27.187 44.6756 27.1999C44.6558 27.2299 39.2811 30.2107 39.2468 30.2107C39.2385 30.2107 39.2302 28.8706 39.2302 27.2299V24.2501L41.9415 22.7482C43.4346 21.9234 44.6641 21.2473 44.6756 21.2473C44.6901 21.2473 44.6984 22.5795 44.6984 24.2092ZM34.9066 29.6305C37.1924 30.8967 37.5867 31.1234 37.5473 31.1534C37.5213 31.1693 36.6549 31.6487 35.6235 32.2159C34.5922 32.7821 31.9204 34.248 29.6843 35.4743L25.6211 37.7051L25.4914 37.6372C24.7153 37.2288 20.2121 34.7633 20.2121 34.7443C20.21 34.7033 32.1268 28.1127 32.1746 28.1296C32.1974 28.1376 33.427 28.8127 34.9066 29.6305ZM38.148 35.0219L38.1387 38.0077L32.1663 41.315C28.8802 43.1354 26.1793 44.6223 26.1658 44.6223C26.1513 44.6223 26.1399 43.4071 26.1399 41.6176V38.6098L32.1268 35.3245C35.416 33.518 38.119 32.0391 38.1335 32.0361C38.1449 32.0361 38.1501 33.3792 38.148 35.0219Z" fill="white"/>
</g>
</g>
<defs>
<filter id="filter0_d_1463_36949" x="9" y="12.6445" width="39.7461" height="39.4004" filterUnits="userSpaceOnUse" color-interpolation-filters="sRGB">
<feFlood flood-opacity="0" result="BackgroundImageFix"/>
<feColorMatrix in="SourceAlpha" type="matrix" values="0 0 0 0 0 0 0 0 0 0 0 0 0 0 0 0 0 0 127 0" result="hardAlpha"/>
<feOffset dy="3"/>
<feGaussianBlur stdDeviation="1.5"/>
<feComposite in2="hardAlpha" operator="out"/>
<feColorMatrix type="matrix" values="0 0 0 0 0 0 0 0 0 0 0 0 0 0 0 0 0 0 0.2 0"/>
<feBlend mode="normal" in2="BackgroundImageFix" result="effect1_dropShadow_1463_36949"/>
<feBlend mode="normal" in="SourceGraphic" in2="effect1_dropShadow_1463_36949" result="shape"/>
</filter>
</defs>
</svg>
