<svg width="54" height="54" viewBox="0 0 54 54" fill="none" xmlns="http://www.w3.org/2000/svg">
<circle cx="27.3333" cy="27.0612" r="26.4167" fill="white" stroke="#E8EBEE" stroke-width="0.5"/>
<g clip-path="url(#clip0_1294_98092)">
<path fill-rule="evenodd" clip-rule="evenodd" d="M36.882 40.041H17.4376C15.9034 40.041 14.6598 38.7974 14.6598 37.2632V17.8188C14.6598 16.2847 15.9034 15.041 17.4376 15.041H36.882C38.4161 15.041 39.6598 16.2847 39.6598 17.8188V37.2632C39.6598 38.7974 38.4161 40.041 36.882 40.041ZM32.4781 36.5692H36.188V28.9481C36.188 25.7236 34.3601 24.1644 31.8069 24.1644C29.2526 24.1644 28.1776 26.1536 28.1776 26.1536V24.5322H24.6024V36.5692H28.1776V30.2505C28.1776 28.5575 28.957 27.55 30.4487 27.55C31.8199 27.55 32.4781 28.5181 32.4781 30.2505V36.5692ZM18.1324 20.7349C18.1324 21.9615 19.1193 22.956 20.3371 22.956C21.5549 22.956 22.5411 21.9615 22.5411 20.7349C22.5411 19.5082 21.5549 18.5137 20.3371 18.5137C19.1193 18.5137 18.1324 19.5082 18.1324 20.7349ZM22.219 36.5692H18.491V24.5322H22.219V36.5692Z" fill="#1D3557"/>
</g>
<defs>
<clipPath id="clip0_1294_98092">
<rect width="25" height="25" fill="white" transform="translate(14.6598 15.041)"/>
</clipPath>
</defs>
</svg>
