<svg width="26" height="25" viewBox="0 0 26 25" fill="none" xmlns="http://www.w3.org/2000/svg">
<g clip-path="url(#clip0_2019_100117)">
<path fill-rule="evenodd" clip-rule="evenodd" d="M22.8824 25H3.43793C1.90381 25 0.660156 23.7563 0.660156 22.2222V2.77778C0.660156 1.24365 1.90381 0 3.43793 0H22.8824C24.4165 0 25.6602 1.24365 25.6602 2.77778V22.2222C25.6602 23.7563 24.4165 25 22.8824 25ZM18.4785 21.5282H22.1884V13.9071C22.1884 10.6825 20.3605 9.12343 17.8073 9.12343C15.253 9.12343 14.178 11.1126 14.178 11.1126V9.49117H10.6027V21.5282H14.178V15.2095C14.178 13.5164 14.9573 12.509 16.449 12.509C17.8202 12.509 18.4785 13.4771 18.4785 15.2095V21.5282ZM4.13281 5.69384C4.13281 6.92045 5.11964 7.91502 6.33745 7.91502C7.55526 7.91502 8.54149 6.92045 8.54149 5.69384C8.54149 4.46722 7.55526 3.47266 6.33745 3.47266C5.11964 3.47266 4.13281 4.46722 4.13281 5.69384ZM8.21941 21.5282H4.49134V9.49117H8.21941V21.5282Z" fill="#007EBB"/>
</g>
<defs>
<clipPath id="clip0_2019_100117">
<rect width="25" height="25" fill="white" transform="translate(0.660156)"/>
</clipPath>
</defs>
</svg>
