<svg width="44" height="44" viewBox="0 0 44 44" fill="none" xmlns="http://www.w3.org/2000/svg">
<path d="M29.682 3.66602H14.3187C7.64533 3.66602 3.66699 7.64435 3.66699 14.3177V29.6627C3.66699 36.3544 7.64533 40.3327 14.3187 40.3327H29.6637C36.337 40.3327 40.3153 36.3544 40.3153 29.681V14.3177C40.3337 7.64435 36.3553 3.66602 29.682 3.66602ZM21.1387 24.8043L14.3187 31.6243H18.3337C19.0853 31.6243 19.7087 32.2477 19.7087 32.9993C19.7087 33.751 19.0853 34.3743 18.3337 34.3743H11.0003C10.817 34.3743 10.6337 34.3377 10.4687 34.2644C10.1387 34.1177 9.86366 33.861 9.71699 33.5127C9.66199 33.3477 9.62533 33.1827 9.62533 32.9993V25.666C9.62533 24.9143 10.2487 24.291 11.0003 24.291C11.752 24.291 12.3753 24.9143 12.3753 25.666V29.681L19.1953 22.861C19.727 22.3293 20.607 22.3293 21.1387 22.861C21.6703 23.3927 21.6703 24.2727 21.1387 24.8043ZM34.3753 18.3327C34.3753 19.0843 33.752 19.7077 33.0003 19.7077C32.2487 19.7077 31.6253 19.0843 31.6253 18.3327V14.3177L24.8053 21.1377C24.5303 21.4127 24.182 21.541 23.8337 21.541C23.4853 21.541 23.137 21.4127 22.862 21.1377C22.3303 20.606 22.3303 19.726 22.862 19.1943L29.682 12.3743H25.667C24.9153 12.3743 24.292 11.751 24.292 10.9993C24.292 10.2477 24.9153 9.62435 25.667 9.62435H33.0003C33.1837 9.62435 33.3487 9.66102 33.532 9.73435C33.862 9.88102 34.137 10.1377 34.2837 10.486C34.3387 10.651 34.3753 10.816 34.3753 10.9993V18.3327Z" fill="white"/>
</svg>
