<svg width="58" height="58" viewBox="0 0 58 58" fill="none" xmlns="http://www.w3.org/2000/svg">
<g opacity="0.8">
<rect x="0.5" y="0.5" width="57" height="57" rx="28.5" fill="#1D3557"/>
<rect x="0.5" y="0.5" width="57" height="57" rx="28.5" stroke="black"/>
<g filter="url(#filter0_d_1470_30844)">
<path d="M40.4737 25.0624C37.9095 25.0624 36.8612 23.249 38.1362 21.0249C38.8729 19.7357 38.4337 18.0923 37.1445 17.3557L34.6937 15.9532C33.5745 15.2873 32.1295 15.684 31.4637 16.8032L31.3079 17.0723C30.0329 19.2965 27.9362 19.2965 26.647 17.0723L26.4912 16.8032C25.8537 15.684 24.4087 15.2873 23.2895 15.9532L20.8387 17.3557C19.5495 18.0923 19.1104 19.7499 19.847 21.039C21.1362 23.249 20.0879 25.0624 17.5237 25.0624C16.0504 25.0624 14.832 26.2665 14.832 27.754V30.2474C14.832 31.7207 16.0362 32.939 17.5237 32.939C20.0879 32.939 21.1362 34.7523 19.847 36.9765C19.1104 38.2657 19.5495 39.909 20.8387 40.6457L23.2895 42.0482C24.4087 42.714 25.8537 42.3174 26.5195 41.1982L26.6754 40.929C27.9504 38.7049 30.047 38.7049 31.3362 40.929L31.492 41.1982C32.1579 42.3174 33.6029 42.714 34.722 42.0482L37.1729 40.6457C38.462 39.909 38.9012 38.2515 38.1645 36.9765C36.8754 34.7523 37.9237 32.939 40.4879 32.939C41.9612 32.939 43.1795 31.7349 43.1795 30.2474V27.754C43.1654 26.2807 41.9612 25.0624 40.4737 25.0624ZM28.9987 33.6049C26.4629 33.6049 24.3945 31.5365 24.3945 29.0007C24.3945 26.4648 26.4629 24.3965 28.9987 24.3965C31.5345 24.3965 33.6029 26.4648 33.6029 29.0007C33.6029 31.5365 31.5345 33.6049 28.9987 33.6049Z" fill="white"/>
</g>
</g>
<defs>
<filter id="filter0_d_1470_30844" x="11.832" y="15.6289" width="34.3477" height="32.7441" filterUnits="userSpaceOnUse" color-interpolation-filters="sRGB">
<feFlood flood-opacity="0" result="BackgroundImageFix"/>
<feColorMatrix in="SourceAlpha" type="matrix" values="0 0 0 0 0 0 0 0 0 0 0 0 0 0 0 0 0 0 127 0" result="hardAlpha"/>
<feOffset dy="3"/>
<feGaussianBlur stdDeviation="1.5"/>
<feComposite in2="hardAlpha" operator="out"/>
<feColorMatrix type="matrix" values="0 0 0 0 0 0 0 0 0 0 0 0 0 0 0 0 0 0 0.2 0"/>
<feBlend mode="normal" in2="BackgroundImageFix" result="effect1_dropShadow_1470_30844"/>
<feBlend mode="normal" in="SourceGraphic" in2="effect1_dropShadow_1470_30844" result="shape"/>
</filter>
</defs>
</svg>
