<svg width="58" height="58" viewBox="0 0 58 58" fill="none" xmlns="http://www.w3.org/2000/svg">
<g opacity="0.8">
<rect width="58" height="58" rx="29" fill="#1D3557"/>
<path fill-rule="evenodd" clip-rule="evenodd" d="M33.2502 16.959V16.2507C33.2502 15.4715 32.6127 14.834 31.8335 14.834H26.1102C25.3027 14.834 24.6652 15.4857 24.6935 16.2932L24.7077 17.0157C24.736 18.1632 25.6852 19.084 26.8327 19.084H31.1252C32.2868 19.084 33.2502 18.1207 33.2502 16.959ZM41.75 21.9174V28.2499C41.75 28.7457 41.2683 29.0857 40.815 28.9157C39.2425 28.3065 37.4858 28.1082 35.6442 28.4765C31.9608 29.2132 29.0283 32.2307 28.4192 35.9424C28.0508 38.209 28.5042 40.3482 29.5383 42.0907C29.8217 42.5724 29.4817 43.1674 28.9292 43.1674H23.3333C18.375 43.1674 16.25 40.334 16.25 36.084V21.9174C16.25 18.149 17.9217 15.4999 21.7608 14.9474C22.1717 14.8907 22.54 15.2165 22.5542 15.6415L22.5967 17.0724C22.6392 19.339 24.5517 21.209 26.8467 21.209H31.125C33.4625 21.209 35.375 19.2965 35.375 16.959V15.6415C35.375 15.2165 35.7433 14.8765 36.1542 14.9332C40.05 15.4574 41.75 18.1207 41.75 21.9174ZM37.5 30.4173C33.59 30.4173 30.4167 33.5907 30.4167 37.5007C30.4167 41.4107 33.59 44.584 37.5 44.584C41.41 44.584 44.5833 41.4107 44.5833 37.5007C44.5833 33.5907 41.41 30.4173 37.5 30.4173ZM36.31 39.2998C36.6642 39.654 36.6642 40.2348 36.31 40.6032C36.1258 40.7873 35.8992 40.8723 35.6583 40.8723C35.4175 40.8723 35.1908 40.7873 35.0067 40.6032L32.5558 38.1523C32.2017 37.7981 32.2017 37.2173 32.5558 36.849L35.0067 34.3982C35.3608 34.044 35.9417 34.044 36.31 34.3982C36.6642 34.7523 36.6642 35.3331 36.31 35.7015L34.5108 37.5007L36.31 39.2998ZM42.43 38.1523L39.9792 40.6032C39.795 40.7873 39.5683 40.8723 39.3275 40.8723C39.0867 40.8723 38.86 40.7873 38.6758 40.6032C38.3217 40.249 38.3217 39.6682 38.6758 39.2998L40.4892 37.5007L38.69 35.7015C38.3358 35.3473 38.3358 34.7665 38.69 34.3982C39.0442 34.044 39.625 34.044 39.9933 34.3982L42.4442 36.849C42.7842 37.2173 42.7842 37.784 42.43 38.1523Z" fill="white"/>
</g>
</svg>
