<svg width="58" height="58" viewBox="0 0 58 58" fill="none" xmlns="http://www.w3.org/2000/svg">
<g opacity="0.8">
<rect width="58" height="58" rx="29" fill="#1D3557"/>
<g clip-path="url(#clip0_1433_69962)">
<g filter="url(#filter0_d_1433_69962)">
<path d="M28.9987 14.834C21.1849 14.834 14.832 21.1868 14.832 29.0007C14.832 36.8145 21.1849 43.1673 28.9987 43.1673C31.4779 43.1673 33.8021 42.5254 35.8164 41.4186L25.5456 27.0749V35.1764H24.0404V24.0866H25.5456L36.724 40.8652C40.5977 38.3418 43.1654 33.9811 43.1654 29.0007C43.1654 21.1868 36.8125 14.834 28.9987 14.834ZM33.8906 33.5605L32.2305 31.0592V24.0866H33.8906V33.5605Z" fill="white"/>
</g>
</g>
</g>
<defs>
<filter id="filter0_d_1433_69962" x="11.832" y="14.834" width="34.332" height="34.334" filterUnits="userSpaceOnUse" color-interpolation-filters="sRGB">
<feFlood flood-opacity="0" result="BackgroundImageFix"/>
<feColorMatrix in="SourceAlpha" type="matrix" values="0 0 0 0 0 0 0 0 0 0 0 0 0 0 0 0 0 0 127 0" result="hardAlpha"/>
<feOffset dy="3"/>
<feGaussianBlur stdDeviation="1.5"/>
<feComposite in2="hardAlpha" operator="out"/>
<feColorMatrix type="matrix" values="0 0 0 0 0 0 0 0 0 0 0 0 0 0 0 0 0 0 0.2 0"/>
<feBlend mode="normal" in2="BackgroundImageFix" result="effect1_dropShadow_1433_69962"/>
<feBlend mode="normal" in="SourceGraphic" in2="effect1_dropShadow_1433_69962" result="shape"/>
</filter>
<clipPath id="clip0_1433_69962">
<rect x="12" y="12" width="34" height="34" rx="17" fill="white"/>
</clipPath>
</defs>
</svg>
