<svg width="58" height="58" viewBox="0 0 58 58" fill="none" xmlns="http://www.w3.org/2000/svg">
<g opacity="0.8">
<rect width="58" height="58" rx="29" fill="#1D3557"/>
<g filter="url(#filter0_d_1463_36897)">
<path d="M33.6029 35.7292H31.1237C29.1687 35.7292 27.582 34.1425 27.582 32.1875C27.582 31.6067 28.0637 31.125 28.6445 31.125C29.2254 31.125 29.707 31.6067 29.707 32.1875C29.707 32.9667 30.3445 33.6042 31.1237 33.6042H33.6029C34.382 33.6042 35.0195 32.9667 35.0195 32.1875C35.0195 31.4083 34.382 30.7708 33.6029 30.7708H31.1237C29.1687 30.7708 27.582 29.1842 27.582 27.2292C27.582 25.2742 29.1687 23.6875 31.1237 23.6875H33.6029C35.5579 23.6875 37.1445 25.2742 37.1445 27.2292C37.1445 27.81 36.6629 28.2917 36.082 28.2917C35.5012 28.2917 35.0195 27.81 35.0195 27.2292C35.0195 26.45 34.382 25.8125 33.6029 25.8125H31.1237C30.3445 25.8125 29.707 26.45 29.707 27.2292C29.707 28.0083 30.3445 28.6458 31.1237 28.6458H33.6029C35.5579 28.6458 37.1445 30.2325 37.1445 32.1875C37.1445 34.1425 35.5579 35.7292 33.6029 35.7292Z" fill="white"/>
</g>
<g filter="url(#filter1_d_1463_36897)">
<path d="M28.9986 44.0311C28.5877 44.0311 28.1769 43.932 27.7944 43.7195L25.6977 42.7136C25.1735 42.4586 24.9469 41.8211 25.2019 41.297C25.4569 40.7728 26.0802 40.5461 26.6186 40.8011L28.7577 41.8353C28.9136 41.9203 29.0552 41.9203 29.1544 41.8636L40.4877 35.5737C40.601 35.517 40.6719 35.3895 40.6719 35.262V22.767C40.6719 22.6395 40.601 22.5262 40.4877 22.4553L29.1544 16.1653C29.041 16.1087 28.9135 16.1087 28.8144 16.1653L17.481 22.4553C17.3677 22.512 17.2969 22.6395 17.2969 22.767V35.262C17.2969 35.3895 17.3677 35.5028 17.481 35.5737L21.0369 37.5428C21.5894 37.8545 22.241 37.8403 22.7935 37.5145C23.346 37.1887 23.6719 36.622 23.6719 35.9845L23.6861 24.7503C23.6861 24.1695 24.1677 23.6878 24.7486 23.6878C25.3294 23.6878 25.8111 24.1695 25.8111 24.7503L25.7969 35.9845C25.7969 37.3728 25.0744 38.6336 23.8702 39.342C22.6661 40.0503 21.2211 40.0645 20.0028 39.3845L16.4469 37.4153C15.6536 36.9762 15.1719 36.1403 15.1719 35.2478V22.7528C15.1719 21.8603 15.6536 21.0245 16.4469 20.5853L27.7802 14.2953C28.5311 13.8703 29.4378 13.8703 30.1886 14.2953L41.5219 20.5853C42.3153 21.0245 42.7969 21.8603 42.7969 22.7528V35.2478C42.7969 36.1403 42.3153 36.9762 41.5219 37.4153L30.1886 43.7053C29.8203 43.9178 29.4094 44.0311 28.9986 44.0311Z" fill="white"/>
</g>
</g>
<defs>
<filter id="filter0_d_1463_36897" x="24.582" y="23.6875" width="15.5625" height="18.041" filterUnits="userSpaceOnUse" color-interpolation-filters="sRGB">
<feFlood flood-opacity="0" result="BackgroundImageFix"/>
<feColorMatrix in="SourceAlpha" type="matrix" values="0 0 0 0 0 0 0 0 0 0 0 0 0 0 0 0 0 0 127 0" result="hardAlpha"/>
<feOffset dy="3"/>
<feGaussianBlur stdDeviation="1.5"/>
<feComposite in2="hardAlpha" operator="out"/>
<feColorMatrix type="matrix" values="0 0 0 0 0 0 0 0 0 0 0 0 0 0 0 0 0 0 0.2 0"/>
<feBlend mode="normal" in2="BackgroundImageFix" result="effect1_dropShadow_1463_36897"/>
<feBlend mode="normal" in="SourceGraphic" in2="effect1_dropShadow_1463_36897" result="shape"/>
</filter>
<filter id="filter1_d_1463_36897" x="12.1719" y="13.9766" width="33.625" height="36.0547" filterUnits="userSpaceOnUse" color-interpolation-filters="sRGB">
<feFlood flood-opacity="0" result="BackgroundImageFix"/>
<feColorMatrix in="SourceAlpha" type="matrix" values="0 0 0 0 0 0 0 0 0 0 0 0 0 0 0 0 0 0 127 0" result="hardAlpha"/>
<feOffset dy="3"/>
<feGaussianBlur stdDeviation="1.5"/>
<feComposite in2="hardAlpha" operator="out"/>
<feColorMatrix type="matrix" values="0 0 0 0 0 0 0 0 0 0 0 0 0 0 0 0 0 0 0.2 0"/>
<feBlend mode="normal" in2="BackgroundImageFix" result="effect1_dropShadow_1463_36897"/>
<feBlend mode="normal" in="SourceGraphic" in2="effect1_dropShadow_1463_36897" result="shape"/>
</filter>
</defs>
</svg>
