<svg width="58" height="58" viewBox="0 0 58 58" fill="none" xmlns="http://www.w3.org/2000/svg">
<g opacity="0.8">
<rect width="58" height="58" rx="29" fill="#1D3557"/>
<path fill-rule="evenodd" clip-rule="evenodd" d="M29 40.1793C17.264 40.1793 7.75 35.1742 7.75 29.0008C7.75 22.8273 17.264 17.8223 29 17.8223C40.7356 17.8223 50.25 22.8273 50.25 29.0008C50.25 35.1742 40.736 40.1793 29 40.1793ZM30.7138 32.4907C30.7446 32.5052 30.7782 32.5127 30.8123 32.5127V32.5123H33.2716C33.325 32.5124 33.3768 32.4938 33.4181 32.4599C33.4594 32.426 33.4877 32.3788 33.4981 32.3264L34.5111 27.1129C34.7325 25.973 34.5526 25.1273 33.9772 24.5984C33.4124 24.0794 32.4429 23.8277 31.0128 23.8277H29.1358L29.6611 21.1237C29.6675 21.0903 29.6665 21.0559 29.658 21.0229C29.6496 20.99 29.634 20.9593 29.6123 20.9331C29.5906 20.9069 29.5635 20.8858 29.5327 20.8714C29.5019 20.8569 29.4683 20.8494 29.4343 20.8494H27.0138C26.9603 20.8494 26.9085 20.868 26.8672 20.902C26.8259 20.9359 26.7977 20.9832 26.7874 21.0357L24.6099 32.2381C24.6035 32.2715 24.6046 32.3059 24.613 32.3388C24.6214 32.3718 24.637 32.4024 24.6587 32.4286C24.6804 32.4548 24.7076 32.4759 24.7383 32.4904C24.7691 32.5049 24.8027 32.5124 24.8367 32.5123H27.2572C27.3107 32.5124 27.3626 32.4939 27.4039 32.46C27.4453 32.4261 27.4736 32.3789 27.484 32.3264L28.6946 26.0948H30.4397C31.1606 26.0948 31.4043 26.2413 31.4856 26.3286C31.6181 26.472 31.6407 26.81 31.5487 27.2815L30.5858 32.2381C30.5793 32.2715 30.5802 32.3059 30.5886 32.3389C30.597 32.3719 30.6125 32.4026 30.6342 32.4289C30.6558 32.4551 30.683 32.4762 30.7138 32.4907ZM21.3524 29.7758C20.9144 30.1128 20.2225 30.2838 19.2951 30.2838H18.0905L18.9116 26.0563H20.3938C21.2485 26.0563 21.8146 26.2034 22.0762 26.4936C22.3326 26.7779 22.3883 27.3038 22.2422 28.0575C22.0852 28.8637 21.786 29.4417 21.3524 29.7758ZM14.3495 35.4688C14.3802 35.4834 14.4138 35.491 14.4478 35.491H16.8882C16.9418 35.491 16.9936 35.4724 17.0349 35.4383C17.0763 35.4043 17.1044 35.357 17.1147 35.3044L17.6572 32.5127H19.5578C20.5001 32.5127 21.2903 32.4111 21.9052 32.2105C22.5304 32.0077 23.1059 31.6624 23.6142 31.1869C24.0274 30.811 24.378 30.3717 24.6528 29.8853C24.9168 29.4125 25.1067 28.8849 25.2172 28.3168C25.4885 26.922 25.274 25.8116 24.5807 25.0181C23.8904 24.2282 22.7928 23.8278 21.3179 23.8278H16.6249C16.5716 23.8279 16.5199 23.8465 16.4787 23.8805C16.4376 23.9145 16.4094 23.9617 16.3992 24.014L14.222 35.2161C14.2155 35.2495 14.2164 35.2839 14.2247 35.3168C14.233 35.3498 14.2485 35.3805 14.27 35.4068C14.2916 35.4331 14.3188 35.4543 14.3495 35.4688ZM38.3416 30.2838C39.269 30.2838 39.9613 30.1128 40.3996 29.7758C40.8325 29.4417 41.132 28.8637 41.2891 28.0575C41.4352 27.3038 41.3797 26.7779 41.1231 26.4936C40.8614 26.2034 40.2953 26.0563 39.4407 26.0563H37.9588L37.137 30.2838H38.3416ZM33.4953 35.491C33.4612 35.4911 33.4276 35.4836 33.3968 35.4691C33.366 35.4545 33.3387 35.4334 33.3171 35.4071C33.2954 35.3808 33.2799 35.35 33.2715 35.317C33.2632 35.284 33.2623 35.2495 33.2689 35.2161L35.446 24.014C35.4563 23.9615 35.4845 23.9143 35.5258 23.8803C35.5671 23.8463 35.619 23.8277 35.6724 23.8278H40.365C41.8399 23.8278 42.9376 24.2282 43.6276 25.0181C44.3212 25.8116 44.5353 26.922 44.2641 28.3168C44.1604 28.8663 43.97 29.3957 43.7 29.8853C43.4251 30.3716 43.0745 30.811 42.6614 31.1869C42.1534 31.6624 41.5773 32.0077 40.9524 32.2105C40.3375 32.4111 39.5472 32.5127 38.6046 32.5127H36.7044L36.1622 35.3044C36.1519 35.357 36.1237 35.4044 36.0823 35.4384C36.0409 35.4725 35.989 35.4911 35.9354 35.491H33.4953Z" fill="white"/>
</g>
</svg>
