<svg width="58" height="58" viewBox="0 0 58 58" fill="none" xmlns="http://www.w3.org/2000/svg">
<g opacity="0.8">
<rect width="58" height="58" rx="29" fill="#1D3557"/>
<path fill-rule="evenodd" clip-rule="evenodd" d="M23.3346 14.834H34.668C39.6263 14.834 41.7513 17.6673 41.7513 21.9173V36.084C41.7513 40.334 39.6263 43.1673 34.668 43.1673H29.058C28.5055 43.1673 28.1655 42.5723 28.4488 42.1048C29.483 40.334 29.9363 38.1948 29.568 35.9423C28.9588 32.2448 26.0263 29.2132 22.343 28.4765C20.5155 28.1082 18.7446 28.3065 17.1863 28.9157C16.733 29.0857 16.2513 28.7457 16.2513 28.2498V21.9173C16.2513 17.6673 18.3763 14.834 23.3346 14.834ZM35.3763 25.1048H38.2096C38.7905 25.1048 39.2721 24.6232 39.2721 24.0423C39.2721 23.4615 38.7905 22.9798 38.2096 22.9798H35.3763C34.3988 22.9798 33.6055 22.1865 33.6055 21.209V18.3757C33.6055 17.7948 33.1238 17.3132 32.543 17.3132C31.9621 17.3132 31.4805 17.7948 31.4805 18.3757V21.209C31.4805 23.3623 33.223 25.1048 35.3763 25.1048ZM13.418 37.4995C13.418 33.5895 16.5913 30.4162 20.5013 30.4162C24.4113 30.4162 27.5846 33.5895 27.5846 37.4995C27.5846 41.4095 24.4113 44.5829 20.5013 44.5829C16.5913 44.5829 13.418 41.4095 13.418 37.4995ZM19.3113 40.602C19.6655 40.2337 19.6655 39.6529 19.3113 39.2987L17.5121 37.4995L19.3113 35.7004C19.6655 35.332 19.6655 34.7512 19.3113 34.397C18.943 34.0429 18.3621 34.0429 18.008 34.397L15.5571 36.8479C15.203 37.2162 15.203 37.797 15.5571 38.1512L18.008 40.602C18.1921 40.7862 18.4188 40.8712 18.6596 40.8712C18.9005 40.8712 19.1271 40.7862 19.3113 40.602ZM22.9805 40.602L25.4313 38.1512C25.7855 37.7829 25.7855 37.2162 25.4455 36.8479L22.9946 34.397C22.6263 34.0429 22.0455 34.0429 21.6913 34.397C21.3371 34.7654 21.3371 35.3462 21.6913 35.7004L23.4905 37.4995L21.6771 39.2987C21.323 39.667 21.323 40.2479 21.6771 40.602C21.8613 40.7862 22.088 40.8712 22.3288 40.8712C22.5696 40.8712 22.7963 40.7862 22.9805 40.602Z" fill="white"/>
</g>
</svg>
