<svg width="58" height="58" viewBox="0 0 58 58" fill="none" xmlns="http://www.w3.org/2000/svg">
<g opacity="0.8">
<rect width="58" height="58" rx="29" fill="#1D3557"/>
<g filter="url(#filter0_d_1463_75462)">
<path d="M33.2766 15.1595C30.4433 14.7203 27.5533 14.7203 24.72 15.1595C23.5583 15.3436 22.7083 16.3353 22.7083 17.4969V22.7103H17.495C16.3333 22.7103 15.3417 23.5603 15.1575 24.722C14.7183 27.5553 14.7183 30.4453 15.1575 33.2786C15.3417 34.4403 16.3333 35.2903 17.495 35.2903H19.875C20.2716 35.2903 20.5833 34.9786 20.5833 34.5819V32.1453C20.5833 29.2411 22.9491 26.8753 25.8533 26.8753H32.1433C32.71 26.8753 33.1633 26.4219 33.1633 25.8553V21.2936C33.1633 20.8969 33.475 20.5853 33.8717 20.5853H34.58C34.9767 20.5853 35.2883 20.2736 35.2883 19.8769V17.4969C35.2883 16.3353 34.4383 15.3436 33.2766 15.1595ZM26.6325 19.9053C26.0516 19.9053 25.4991 19.3528 25.4991 18.7719C25.4991 18.1769 26.0516 17.6244 26.6325 17.6244C26.9158 17.6244 27.2275 17.752 27.4258 17.9503C27.6383 18.1486 27.78 18.4744 27.78 18.7719C27.78 19.3528 27.2275 19.9053 26.6325 19.9053Z" fill="white"/>
</g>
<g filter="url(#filter1_d_1463_75462)">
<path d="M42.8379 24.7226C42.6537 23.561 41.662 22.7109 40.5004 22.7109H35.9954C35.5987 22.7109 35.287 23.0226 35.287 23.4193V25.8559C35.287 27.5843 33.8845 29.0009 32.142 29.0009H25.852C24.1095 29.0009 22.707 30.4034 22.707 32.1459V40.5043C22.707 41.6659 23.5571 42.6576 24.7187 42.8418C27.5521 43.2809 30.442 43.2809 33.2754 42.8418C34.437 42.6576 35.287 41.6659 35.287 40.5043V35.2909H40.5004C41.662 35.2909 42.6537 34.4409 42.8379 33.2793C43.277 30.4459 43.277 27.556 42.8379 24.7226ZM31.3629 40.3768C30.7821 40.3768 30.2153 39.8243 30.2153 39.2293C30.2153 38.6343 30.7679 38.0818 31.3629 38.0818C31.6321 38.0818 31.9579 38.2093 32.1562 38.3934C32.3687 38.5918 32.5104 38.9318 32.5104 39.2151C32.4962 39.8243 31.9437 40.3768 31.3629 40.3768Z" fill="white"/>
</g>
</g>
<defs>
<filter id="filter0_d_1463_75462" x="11.8281" y="14.8301" width="26.4609" height="26.4609" filterUnits="userSpaceOnUse" color-interpolation-filters="sRGB">
<feFlood flood-opacity="0" result="BackgroundImageFix"/>
<feColorMatrix in="SourceAlpha" type="matrix" values="0 0 0 0 0 0 0 0 0 0 0 0 0 0 0 0 0 0 127 0" result="hardAlpha"/>
<feOffset dy="3"/>
<feGaussianBlur stdDeviation="1.5"/>
<feComposite in2="hardAlpha" operator="out"/>
<feColorMatrix type="matrix" values="0 0 0 0 0 0 0 0 0 0 0 0 0 0 0 0 0 0 0.2 0"/>
<feBlend mode="normal" in2="BackgroundImageFix" result="effect1_dropShadow_1463_75462"/>
<feBlend mode="normal" in="SourceGraphic" in2="effect1_dropShadow_1463_75462" result="shape"/>
</filter>
<filter id="filter1_d_1463_75462" x="19.707" y="22.7109" width="26.4609" height="26.4609" filterUnits="userSpaceOnUse" color-interpolation-filters="sRGB">
<feFlood flood-opacity="0" result="BackgroundImageFix"/>
<feColorMatrix in="SourceAlpha" type="matrix" values="0 0 0 0 0 0 0 0 0 0 0 0 0 0 0 0 0 0 127 0" result="hardAlpha"/>
<feOffset dy="3"/>
<feGaussianBlur stdDeviation="1.5"/>
<feComposite in2="hardAlpha" operator="out"/>
<feColorMatrix type="matrix" values="0 0 0 0 0 0 0 0 0 0 0 0 0 0 0 0 0 0 0.2 0"/>
<feBlend mode="normal" in2="BackgroundImageFix" result="effect1_dropShadow_1463_75462"/>
<feBlend mode="normal" in="SourceGraphic" in2="effect1_dropShadow_1463_75462" result="shape"/>
</filter>
</defs>
</svg>
