<svg width="58" height="58" viewBox="0 0 58 58" fill="none" xmlns="http://www.w3.org/2000/svg">
<g opacity="0.8">
<rect width="58" height="58" rx="29" fill="#1D3557"/>
<g clip-path="url(#clip0_1433_86205)">
<g filter="url(#filter0_d_1433_86205)">
<path d="M29.0008 32.0289C30.6732 32.0289 32.0289 30.6732 32.0289 29.0008C32.0289 27.3284 30.6732 25.9727 29.0008 25.9727C27.3284 25.9727 25.9727 27.3284 25.9727 29.0008C25.9727 30.6732 27.3284 32.0289 29.0008 32.0289Z" fill="white"/>
</g>
<g filter="url(#filter1_d_1433_86205)">
<path d="M40.5008 24.007C39.9164 23.7945 39.3055 23.582 38.668 23.3961C38.8273 22.7586 38.9602 22.1211 39.0664 21.5102C39.6242 18.0039 39.0133 15.5336 37.3133 14.5773C36.8086 14.2852 36.2508 14.1523 35.6133 14.1523C33.7539 14.1523 31.3898 15.5336 28.9992 17.8445C26.6086 15.5336 24.2445 14.1523 22.3852 14.1523C21.7477 14.1523 21.1898 14.2852 20.6852 14.5773C18.9852 15.5602 18.3742 18.0305 18.932 21.5102C19.0383 22.1211 19.1711 22.7586 19.3305 23.3961C18.693 23.582 18.082 23.768 17.4977 24.007C14.1773 25.282 12.3711 27.0352 12.3711 29.0008C12.3711 30.9664 14.2039 32.7195 17.4977 33.9945C18.082 34.207 18.693 34.4195 19.3305 34.6055C19.1711 35.243 19.0383 35.8805 18.932 36.4914C18.3742 39.9977 18.9852 42.468 20.6852 43.4242C21.1898 43.7164 21.7477 43.8492 22.3852 43.8492C24.2711 43.8492 26.6352 42.468 28.9992 40.157C31.3898 42.468 33.7539 43.8492 35.6133 43.8492C36.2508 43.8492 36.8086 43.7164 37.3133 43.4242C39.0133 42.4414 39.6242 39.9711 39.0664 36.4914C38.9602 35.8805 38.8273 35.243 38.668 34.6055C39.3055 34.4195 39.9164 34.2336 40.5008 33.9945C43.8211 32.7195 45.6273 30.9664 45.6273 29.0008C45.6273 27.0352 43.8211 25.282 40.5008 24.007ZM36.5695 15.9055C37.6586 16.543 38.0305 18.5086 37.5789 21.2977C37.4992 21.8555 37.3664 22.4398 37.207 23.0508C35.8258 22.732 34.3648 22.5195 32.8242 22.3867C31.9211 21.1117 30.9914 19.9695 30.0617 18.9336C32.0273 16.9945 34.0195 15.6664 35.6398 15.6664C35.9852 15.6664 36.3039 15.7461 36.5695 15.9055ZM33.5945 31.657C33.1164 32.507 32.5586 33.357 31.9742 34.207C30.9914 34.2867 30.0086 34.3133 28.9992 34.3133C27.9633 34.3133 26.9805 34.2867 26.0242 34.207C25.4398 33.357 24.9086 32.507 24.4305 31.657C23.9258 30.7805 23.4477 29.8773 23.0227 29.0008C23.4477 28.1242 23.9258 27.2211 24.4305 26.3445C24.9086 25.4945 25.4664 24.6445 26.0508 23.7945C27.0336 23.7148 28.0164 23.6883 29.0258 23.6883C30.0617 23.6883 31.0445 23.7148 32.0008 23.7945C32.5852 24.6445 33.1164 25.4945 33.5945 26.3445C34.0992 27.2211 34.5773 28.1242 35.0023 29.0008C34.5508 29.8773 34.0992 30.7539 33.5945 31.657ZM35.7992 30.7805C36.1977 31.7102 36.5164 32.6133 36.8086 33.5164C35.9055 33.7289 34.9492 33.8883 33.9398 34.0211C34.2586 33.5164 34.6039 32.9852 34.8961 32.4273C35.2148 31.8695 35.507 31.3117 35.7992 30.7805ZM28.9992 37.9789C28.3617 37.2883 27.7508 36.5445 27.1664 35.7742C27.7773 35.8008 28.3883 35.8273 28.9992 35.8273C29.6102 35.8273 30.2211 35.8008 30.832 35.7742C30.2477 36.5445 29.6367 37.2883 28.9992 37.9789ZM24.0586 33.9945C23.0492 33.8617 22.093 33.7023 21.1898 33.4898C21.482 32.6133 21.8008 31.6836 22.1992 30.7539C22.4914 31.2852 22.7836 31.843 23.1023 32.3742C23.4211 32.9586 23.7398 33.4633 24.0586 33.9945ZM22.1992 27.2211C21.8008 26.2914 21.482 25.3883 21.1898 24.4852C22.093 24.2727 23.0492 24.1133 24.0586 23.9805C23.7398 24.4852 23.3945 25.0164 23.1023 25.5742C22.7836 26.132 22.4914 26.6898 22.1992 27.2211ZM28.9992 20.0227C29.6367 20.7133 30.2477 21.457 30.832 22.2273C30.2211 22.2008 29.6102 22.1742 28.9992 22.1742C28.3883 22.1742 27.7773 22.2008 27.1664 22.2273C27.7508 21.457 28.3617 20.7133 28.9992 20.0227ZM34.8961 25.6008L33.9398 24.007C34.9492 24.1398 35.9055 24.2992 36.8086 24.5117C36.5164 25.3883 36.1977 26.318 35.7992 27.2477C35.507 26.6898 35.2148 26.132 34.8961 25.6008ZM20.4195 21.2977C19.968 18.5086 20.3398 16.543 21.4289 15.9055C21.6945 15.7461 22.0133 15.6664 22.3586 15.6664C23.9523 15.6664 25.9445 16.968 27.9367 18.9336C27.007 19.943 26.0773 21.1117 25.1742 22.3867C23.6336 22.5195 22.1727 22.7586 20.7914 23.0508C20.632 22.4398 20.5258 21.8555 20.4195 21.2977ZM13.8586 29.0008C13.8586 27.7523 15.3727 26.4242 18.0289 25.4414C18.5602 25.2289 19.1445 25.043 19.7289 24.8836C20.1539 26.2117 20.6852 27.6195 21.3227 29.0273C20.6852 30.4352 20.1273 31.8164 19.7289 33.1445C16.0633 32.082 13.8586 30.4883 13.8586 29.0008ZM21.4289 42.0961C20.3398 41.4586 19.968 39.493 20.4195 36.7039C20.4992 36.1461 20.632 35.5617 20.7914 34.9508C22.1727 35.2695 23.6336 35.482 25.1742 35.6148C26.0773 36.8898 27.007 38.032 27.9367 39.068C25.9711 41.007 23.9789 42.3352 22.3586 42.3352C22.0133 42.3352 21.6945 42.2555 21.4289 42.0961ZM37.5789 36.7039C38.0305 39.493 37.6586 41.4586 36.5695 42.0961C36.3039 42.2555 35.9852 42.3352 35.6398 42.3352C34.0461 42.3352 32.0539 41.0336 30.0617 39.068C30.9914 38.0586 31.9211 36.8898 32.8242 35.6148C34.3648 35.482 35.8258 35.243 37.207 34.9508C37.3664 35.5617 37.4727 36.1461 37.5789 36.7039ZM39.9695 32.5602C39.4383 32.7727 38.8539 32.9586 38.2695 33.118C37.8445 31.7898 37.3133 30.382 36.6758 28.9742C37.3133 27.5664 37.8711 26.1852 38.2695 24.857C41.9352 25.9195 44.1398 27.5133 44.1398 29.0008C44.1398 30.2492 42.5992 31.5773 39.9695 32.5602Z" fill="white"/>
</g>
</g>
</g>
<defs>
<filter id="filter0_d_1433_86205" x="22.9727" y="25.9727" width="12.0547" height="12.0566" filterUnits="userSpaceOnUse" color-interpolation-filters="sRGB">
<feFlood flood-opacity="0" result="BackgroundImageFix"/>
<feColorMatrix in="SourceAlpha" type="matrix" values="0 0 0 0 0 0 0 0 0 0 0 0 0 0 0 0 0 0 127 0" result="hardAlpha"/>
<feOffset dy="3"/>
<feGaussianBlur stdDeviation="1.5"/>
<feComposite in2="hardAlpha" operator="out"/>
<feColorMatrix type="matrix" values="0 0 0 0 0 0 0 0 0 0 0 0 0 0 0 0 0 0 0.2 0"/>
<feBlend mode="normal" in2="BackgroundImageFix" result="effect1_dropShadow_1433_86205"/>
<feBlend mode="normal" in="SourceGraphic" in2="effect1_dropShadow_1433_86205" result="shape"/>
</filter>
<filter id="filter1_d_1433_86205" x="9.37109" y="14.1523" width="39.2578" height="35.6973" filterUnits="userSpaceOnUse" color-interpolation-filters="sRGB">
<feFlood flood-opacity="0" result="BackgroundImageFix"/>
<feColorMatrix in="SourceAlpha" type="matrix" values="0 0 0 0 0 0 0 0 0 0 0 0 0 0 0 0 0 0 127 0" result="hardAlpha"/>
<feOffset dy="3"/>
<feGaussianBlur stdDeviation="1.5"/>
<feComposite in2="hardAlpha" operator="out"/>
<feColorMatrix type="matrix" values="0 0 0 0 0 0 0 0 0 0 0 0 0 0 0 0 0 0 0.2 0"/>
<feBlend mode="normal" in2="BackgroundImageFix" result="effect1_dropShadow_1433_86205"/>
<feBlend mode="normal" in="SourceGraphic" in2="effect1_dropShadow_1433_86205" result="shape"/>
</filter>
<clipPath id="clip0_1433_86205">
<rect x="12" y="12" width="34" height="34" rx="17" fill="white"/>
</clipPath>
</defs>
</svg>
