<svg width="58" height="58" viewBox="0 0 58 58" fill="none" xmlns="http://www.w3.org/2000/svg">
<g opacity="0.8">
<rect width="58" height="58" rx="29" fill="#1D3557"/>
<g clip-path="url(#clip0_1463_70019)">
<g filter="url(#filter0_d_1463_70019)">
<path fill-rule="evenodd" clip-rule="evenodd" d="M41.1353 15.914C37.8931 14.3142 34.5723 14.1514 31.1723 15.3533C28.0435 16.4594 25.5477 18.4385 23.6923 21.1341C20.5529 25.6954 18.2725 30.6724 16.9945 36.079C16.34 38.846 15.9161 41.7809 16.0301 44.6385C16.0394 44.8704 16.0739 44.937 16.0967 45.4683H32.1315C32.0855 44.937 32.0552 45.0922 32.0154 44.991C31.1681 42.8202 30.508 40.581 30.0423 38.2977C29.3788 35.0436 29.0313 31.7291 29.7167 28.4449C30.6758 23.8461 33.2973 20.528 37.7165 18.8072C40.2197 17.8332 42.5957 18.1102 44.6796 19.9393C44.6987 19.9561 44.738 19.946 44.789 19.9542L45.4703 18.9228C44.1582 17.6735 42.7163 16.6945 41.1353 15.914ZM12.8872 37.0729C12.765 38.115 12.6508 39.0906 12.5312 40.1146L15.4882 40.4695L16.0298 37.3104L12.8872 37.0729ZM18.6911 27.9923L15.9097 26.904L15.0109 29.4559L17.8453 30.3643C18.1322 29.5592 18.4021 28.8019 18.6911 27.9923ZM31.818 42.2455C32.7676 42.3161 33.7191 42.3647 34.7672 42.4258C34.3866 41.6345 34.0485 40.9189 33.6944 40.2118C33.6556 40.1351 33.5247 40.061 33.4357 40.0596C32.63 40.0479 31.8239 40.053 30.9677 40.053C31.1606 40.751 31.3282 41.3952 31.5245 42.03C31.554 42.1259 31.7123 42.2378 31.818 42.2455ZM23.4051 20.2613L21.2921 18.862L19.603 20.7492L21.7753 22.2091L23.4051 20.2613ZM30.1345 34.4374C30.131 34.5227 30.2078 34.6584 30.2827 34.6921C31.0437 35.0343 31.8127 35.3602 32.65 35.7209C32.6152 35.059 32.5918 34.5057 32.5522 33.9534C32.545 33.8541 32.4983 33.7112 32.4247 33.6703C31.7258 33.2835 31.0172 32.914 30.2423 32.5029C30.2001 33.2108 30.1571 33.8235 30.1345 34.4374ZM29.5084 15.2667L28.0618 13.6249L26.0699 14.6603L27.5189 16.4251L29.5084 15.2667ZM30.4155 28.3291C30.3722 28.4284 30.4293 28.6391 30.5146 28.7158C31.0923 29.237 31.6897 29.7358 32.3543 30.3045C32.5065 29.667 32.65 29.0989 32.7716 28.5267C32.7931 28.425 32.7631 28.2568 32.6925 28.2C32.1755 27.7832 31.6419 27.3864 31.0889 26.9646C30.8458 27.4467 30.6102 27.8791 30.4155 28.3291ZM33.7225 14.404C34.461 14.4239 35.2002 14.4151 35.9801 14.4151C35.9023 13.8722 35.8651 13.4607 35.7724 13.0626C35.7447 12.9441 35.5665 12.7863 35.4462 12.7762C34.7059 12.7162 33.9627 12.6931 33.1483 12.6543C33.2569 13.2023 33.3398 13.6852 33.4569 14.1599C33.4816 14.2605 33.6288 14.4013 33.7225 14.404ZM34.6217 23.8801C34.6594 23.8095 34.669 23.6812 34.6294 23.6196C34.2665 23.0519 33.8896 22.493 33.4994 21.905L32.235 23.0663L33.9834 25.0037C34.2182 24.5949 34.4283 24.2419 34.6217 23.8801ZM35.9857 20.0214L36.7408 21.4242C37.9226 20.7766 38.0358 20.5423 37.6174 19.6089L35.9857 20.0214ZM41.64 15.6989C42.1317 16.0022 42.651 16.2607 43.1785 16.5449L43.5318 15.9951C42.8885 15.5246 42.2674 15.0696 41.5627 14.5538C41.5351 14.847 41.4939 15.0518 41.5046 15.2542C41.5131 15.4086 41.5388 15.6367 41.64 15.6989ZM40.9542 20.1399C41.4854 20.1975 42.2823 20.2525 42.8136 20.3107V19.5887C42.2823 19.4724 41.4854 19.3571 40.9542 19.2373V20.1399Z" fill="white"/>
</g>
</g>
</g>
<defs>
<filter id="filter0_d_1463_70019" x="9.53125" y="12.6543" width="38.9375" height="38.8145" filterUnits="userSpaceOnUse" color-interpolation-filters="sRGB">
<feFlood flood-opacity="0" result="BackgroundImageFix"/>
<feColorMatrix in="SourceAlpha" type="matrix" values="0 0 0 0 0 0 0 0 0 0 0 0 0 0 0 0 0 0 127 0" result="hardAlpha"/>
<feOffset dy="3"/>
<feGaussianBlur stdDeviation="1.5"/>
<feComposite in2="hardAlpha" operator="out"/>
<feColorMatrix type="matrix" values="0 0 0 0 0 0 0 0 0 0 0 0 0 0 0 0 0 0 0.2 0"/>
<feBlend mode="normal" in2="BackgroundImageFix" result="effect1_dropShadow_1463_70019"/>
<feBlend mode="normal" in="SourceGraphic" in2="effect1_dropShadow_1463_70019" result="shape"/>
</filter>
<clipPath id="clip0_1463_70019">
<rect x="12" y="12" width="34" height="34" rx="17" fill="white"/>
</clipPath>
</defs>
</svg>
