<svg width="58" height="58" viewBox="0 0 58 58" fill="none" xmlns="http://www.w3.org/2000/svg">
<g opacity="0.8">
<rect width="58" height="58" rx="29" fill="#1D3557"/>
<path fill-rule="evenodd" clip-rule="evenodd" d="M41.736 21.9173V20.7698C41.736 17.4973 39.0727 14.834 35.8002 14.834H20.7977C17.511 14.834 14.8477 17.4973 14.8477 20.7698V29.794C14.8477 32.9815 17.3552 35.574 20.5002 35.7298H25.4585V41.1556H22.696C22.1293 41.1556 21.676 41.5948 21.676 42.1615C21.676 42.714 22.1293 43.1673 22.696 43.1673H25.4585C26.2377 43.1673 26.8752 42.5298 26.8752 41.7507V28.8307C26.8752 25.1898 28.7168 23.334 32.3435 23.334H40.3193C41.0985 23.334 41.736 22.6965 41.736 21.9173ZM39.8238 25.459C40.6172 25.459 41.2547 25.5582 41.7363 25.7565C42.7705 26.1957 43.1672 27.1448 43.1672 28.8307V39.7957C43.1672 42.2748 42.2888 43.1673 39.8238 43.1673H32.3438C30.6863 43.1673 29.7513 42.7706 29.3122 41.7506C29.0997 41.2548 29.0005 40.6173 29.0005 39.7957V28.8307C29.0005 26.3373 29.8788 25.459 32.3438 25.459H39.8238ZM34.6672 39.9798H37.5005C38.0813 39.9798 38.563 39.4981 38.563 38.9173C38.563 38.3365 38.0813 37.8548 37.5005 37.8548H34.6672C34.0863 37.8548 33.6047 38.3365 33.6047 38.9173C33.6047 39.2573 33.7605 39.5548 34.0155 39.739C34.1713 39.8806 34.3555 39.9515 34.568 39.9656C34.5963 39.9798 34.6388 39.9798 34.6672 39.9798Z" fill="white"/>
</g>
</svg>
