<svg width="58" height="58" viewBox="0 0 58 58" fill="none" xmlns="http://www.w3.org/2000/svg">
<g opacity="0.8">
<rect width="58" height="58" rx="29" fill="#1D3557"/>
<g clip-path="url(#clip0_1423_16700)">
<g filter="url(#filter0_d_1423_16700)">
<path d="M34.9463 38.1694C31.8236 39.8924 27.5317 40.0695 23.2116 38.3015C19.8433 36.9349 16.9634 34.5876 14.9453 31.5643C15.8832 32.2822 16.9078 32.879 17.9949 33.3406C22.4555 35.3362 26.9133 35.1985 30.0529 33.3406C25.5838 30.0633 21.7894 25.8023 18.9618 22.3227C18.4038 21.7346 17.9057 21.0925 17.4749 20.4058C20.8928 23.3879 26.3287 27.1515 28.2624 28.2167C25.5014 25.3877 22.9642 22.3486 20.6735 19.1269C24.4812 22.8271 28.6711 26.1125 33.1727 28.9278C33.3723 29.0346 33.5269 29.1246 33.6506 29.2089C33.7825 28.8867 33.8961 28.5574 33.9907 28.2223C35.0334 24.5993 33.8417 20.4817 31.239 17.0723C37.2651 20.5491 40.8488 27.0812 39.3479 32.5508C39.3085 32.6998 39.2663 32.8319 39.2214 32.9865L39.2748 33.0483C42.2513 36.5982 41.4334 40.3562 41.0596 39.6535C39.4434 36.6235 36.4556 37.5595 34.9463 38.1694Z" fill="white"/>
</g>
</g>
</g>
<defs>
<filter id="filter0_d_1423_16700" x="11.9453" y="17.0723" width="32.5078" height="28.666" filterUnits="userSpaceOnUse" color-interpolation-filters="sRGB">
<feFlood flood-opacity="0" result="BackgroundImageFix"/>
<feColorMatrix in="SourceAlpha" type="matrix" values="0 0 0 0 0 0 0 0 0 0 0 0 0 0 0 0 0 0 127 0" result="hardAlpha"/>
<feOffset dy="3"/>
<feGaussianBlur stdDeviation="1.5"/>
<feComposite in2="hardAlpha" operator="out"/>
<feColorMatrix type="matrix" values="0 0 0 0 0 0 0 0 0 0 0 0 0 0 0 0 0 0 0.2 0"/>
<feBlend mode="normal" in2="BackgroundImageFix" result="effect1_dropShadow_1423_16700"/>
<feBlend mode="normal" in="SourceGraphic" in2="effect1_dropShadow_1423_16700" result="shape"/>
</filter>
<clipPath id="clip0_1423_16700">
<rect x="12" y="12" width="34" height="34" rx="17" fill="white"/>
</clipPath>
</defs>
</svg>
