<svg width="54" height="54" viewBox="0 0 54 54" fill="none" xmlns="http://www.w3.org/2000/svg">
<circle cx="26.6667" cy="27.0612" r="26.4167" fill="white" stroke="#E8EBEE" stroke-width="0.5"/>
<g clip-path="url(#clip0_1294_98099)">
<path d="M39.4906 16.8181C38.4024 17.5857 37.1975 18.1727 35.9224 18.5567C35.238 17.7698 34.3285 17.212 33.3168 16.9589C32.3051 16.7057 31.24 16.7694 30.2657 17.1413C29.2914 17.5132 28.4547 18.1753 27.869 19.0382C27.2832 19.9011 26.9766 20.923 26.9906 21.9658V23.1022C24.9936 23.1539 23.0148 22.711 21.2304 21.8129C19.446 20.9147 17.9114 19.5892 16.7633 17.9544C16.7633 17.9544 12.2179 28.1817 22.4451 32.7272C20.1048 34.3158 17.3169 35.1123 14.4906 34.9999C24.7179 40.6817 37.2179 34.9999 37.2179 21.9317C37.2168 21.6152 37.1864 21.2994 37.127 20.9885C38.2867 19.8448 39.1052 18.4007 39.4906 16.8181Z" fill="#1D3557"/>
</g>
<defs>
<clipPath id="clip0_1294_98099">
<rect width="25" height="25" fill="white" transform="translate(14.4902 14.541)"/>
</clipPath>
</defs>
</svg>
