<svg width="26" height="26" viewBox="0 0 26 26" fill="none" xmlns="http://www.w3.org/2000/svg">
<g clip-path="url(#clip0_2019_100114)">
<path d="M25.4902 2.77705C24.402 3.54464 23.1972 4.13172 21.9221 4.51569C21.2377 3.72877 20.3281 3.17102 19.3164 2.91788C18.3047 2.66473 17.2397 2.72841 16.2653 3.10029C15.291 3.47218 14.4544 4.13433 13.8686 4.99718C13.2829 5.86004 12.9763 6.88198 12.9902 7.92478V9.06114C10.9932 9.11293 9.01441 8.67002 7.23002 7.77188C5.44562 6.87373 3.91105 5.54823 2.76296 3.91342C2.76296 3.91342 -1.78249 14.1407 8.44478 18.6861C6.10447 20.2747 3.31655 21.0713 0.490234 20.9589C10.7175 26.6407 23.2175 20.9589 23.2175 7.89069C23.2165 7.57416 23.186 7.25841 23.1266 6.94751C24.2864 5.80375 25.1048 4.35968 25.4902 2.77705Z" fill="#1DA1F2"/>
</g>
<defs>
<clipPath id="clip0_2019_100114">
<rect width="25" height="25" fill="white" transform="translate(0.490234 0.5)"/>
</clipPath>
</defs>
</svg>
