<svg width="58" height="58" viewBox="0 0 58 58" fill="none" xmlns="http://www.w3.org/2000/svg">
<g opacity="0.8">
<rect width="58" height="58" rx="29" fill="#1D3557"/>
<path fill-rule="evenodd" clip-rule="evenodd" d="M41.1118 25.3727H39.5534C39.3409 25.3727 39.1284 25.4152 38.9301 25.4718L31.8609 18.4027C32.5409 17.5243 32.4843 16.2635 31.6768 15.4702L30.5718 14.3652C29.7359 13.5293 28.2626 13.5293 27.4126 14.3652L26.3076 15.4702C25.5143 16.2635 25.4576 17.5243 26.1376 18.4027L19.0684 25.4718C18.8701 25.4152 18.6576 25.3727 18.4451 25.3727H16.8868C15.6543 25.3727 14.6484 26.3785 14.6484 27.611V29.1693C14.6484 30.4018 15.6543 31.4077 16.8868 31.4077H18.4451C19.6776 31.4077 20.6834 30.4018 20.6834 29.1693V27.611C20.6834 27.3985 20.6409 27.186 20.5843 26.9877L27.6534 19.9185C28.0359 20.216 28.5176 20.3718 28.9993 20.3718C29.4809 20.3718 29.9626 20.2018 30.3593 19.9043L37.4284 26.9735C37.3718 27.1718 37.3293 27.3843 37.3293 27.5968V29.1552C37.3293 30.3877 38.3351 31.3935 39.5676 31.3935H41.1259C42.3584 31.3935 43.3643 30.3877 43.3643 29.1552V27.5968C43.3359 26.3643 42.3443 25.3727 41.1118 25.3727ZM34.3117 35.445L31.9883 37.4992H25.9533L23.63 35.445C22.2842 34.34 22.2842 33.49 23.3042 32.1867L27.3983 27.0017C27.6817 26.6475 28.0075 26.4067 28.3758 26.2792C28.7583 26.1517 29.1692 26.1517 29.5658 26.2792C29.92 26.4067 30.2458 26.6475 30.5433 27.0017L34.6375 32.1867C35.6575 33.4759 35.615 34.2834 34.3117 35.445ZM27.1573 43.1659H30.8265C32.2148 43.1659 33.1356 42.1742 32.8523 40.9701L32.4131 39.0009C32.314 38.6042 31.974 38.3351 31.5773 38.3351H26.4065C26.0098 38.3351 25.6556 38.6042 25.5706 39.0009L25.1315 40.9701C24.8765 42.1034 25.854 43.1659 27.1573 43.1659Z" fill="white"/>
</g>
</svg>
