<svg width="54" height="54" viewBox="0 0 54 54" fill="none" xmlns="http://www.w3.org/2000/svg">
<circle cx="27" cy="27.0612" r="26.4167" fill="white" stroke="#E8EBEE" stroke-width="0.5"/>
<path d="M36.6304 15.0605H18.7018C15.1843 15.0605 12.3328 17.8638 12.3328 21.3219V30.1326C12.3328 33.5906 15.1843 36.3939 18.7018 36.3939H36.6304C40.1479 36.3939 42.9994 33.5906 42.9994 30.1326V21.3219C42.9994 17.8638 40.1479 15.0605 36.6304 15.0605ZM32.323 26.1559L23.9372 30.0877C23.7138 30.1925 23.4557 30.0323 23.4557 29.789V21.6796C23.4557 21.4328 23.7206 21.2728 23.9445 21.3844L32.3302 25.562C32.5796 25.6861 32.5752 26.0377 32.323 26.1559Z" fill="#1D3557"/>
</svg>
